<svg width="15" height="15" viewBox="0 0 15 15" fill="none" xmlns="http://www.w3.org/2000/svg">
    <path d="M7.5 11.0449C8.8106 11.0449 9.87305 9.98247 9.87305 8.67188C9.87305 7.36128 8.8106 6.29883 7.5 6.29883C6.1894 6.29883 5.12695 7.36128 5.12695 8.67188C5.12695 9.98247 6.1894 11.0449 7.5 11.0449Z" fill="#F3C28B"/>
    <path d="M10.9658 2.66602L10.8141 1.90772C10.7322 1.49833 10.3698 1.20117 9.95227 1.20117H5.0478C4.63032 1.20117 4.26783 1.49833 4.18597 1.90772L4.0343 2.66602H10.9658Z" fill="#F3C28B"/>
    <path d="M13.6816 3.54492C12.6497 3.54492 1.80129 3.54492 1.31836 3.54492C0.591416 3.54492 0 4.13634 0 4.86328V12.4805C0 13.2074 0.591416 13.7988 1.31836 13.7988H13.6816C14.4086 13.7988 15 13.2074 15 12.4805V4.86328C15 4.13634 14.4086 3.54492 13.6816 3.54492ZM3.75 6.29883H2.34375C2.10105 6.29883 1.9043 6.10207 1.9043 5.85938C1.9043 5.61668 2.10105 5.41992 2.34375 5.41992H3.75C3.9927 5.41992 4.18945 5.61668 4.18945 5.85938C4.18945 6.10207 3.9927 6.29883 3.75 6.29883ZM7.5 11.9238C5.70686 11.9238 4.24805 10.465 4.24805 8.67188C4.24805 6.87873 5.70686 5.41992 7.5 5.41992C9.29314 5.41992 10.752 6.87873 10.752 8.67188C10.752 10.465 9.29314 11.9238 7.5 11.9238Z" fill="#F3C28B"/>
</svg>
