<svg width="21" height="16" viewBox="0 0 21 16" fill="none" xmlns="http://www.w3.org/2000/svg">
    <path d="M1.70711 6.79289C1.31658 6.40237 0.683417 6.40237 0.292893 6.79289C-0.0976311 7.18342 -0.0976311 7.81658 0.292893 8.20711L1.70711 6.79289ZM7.5 14L6.79289 14.7071L7.5 15.4142L8.20711 14.7071L7.5 14ZM20.7071 2.20711C21.0976 1.81658 21.0976 1.18342 20.7071 0.792893C20.3166 0.402369 19.6834 0.402369 19.2929 0.792893L20.7071 2.20711ZM0.292893 8.20711L6.79289 14.7071L8.20711 13.2929L1.70711 6.79289L0.292893 8.20711ZM8.20711 14.7071L20.7071 2.20711L19.2929 0.792893L6.79289 13.2929L8.20711 14.7071Z" fill="#F3C28B"/>
</svg>
