<svg width="60" height="60" viewBox="0 0 60 60" fill="none" xmlns="http://www.w3.org/2000/svg">
    <g clip-path="url(#clip0)">
        <path d="M49.9862 33.2735L41.0274 19.2294C42.2967 18.5623 43.165 17.2312 43.165 15.7004C43.165 14.0249 42.1249 12.5886 40.6568 12.0006L43.3708 2.51207C43.4879 2.10271 43.3737 1.66218 43.0728 1.3611C41.2674 -0.444164 38.33 -0.444164 36.5246 1.3611C36.0928 1.79296 35.5186 2.03075 34.9079 2.03075C34.2972 2.03075 33.7231 1.79296 33.2885 1.35829L33.2828 1.35255C31.4839 -0.446625 28.5515 -0.451664 26.7453 1.34188L26.7117 1.3754C25.8202 2.26057 24.3722 2.25799 23.484 1.36966L23.4755 1.3611C21.6701 -0.444164 18.7327 -0.444164 16.9273 1.3611C16.6262 1.66241 16.5121 2.1033 16.6294 2.51289L19.3493 11.9984C17.878 12.5848 16.8351 14.0227 16.8351 15.7006C16.8351 17.2314 17.7033 18.5625 18.9727 19.2295L10.0138 33.2735C6.54789 38.7067 6.32826 45.3242 9.4263 50.9752C12.5243 56.6262 18.2214 60 24.6661 60H35.3338C41.7783 60 47.4754 56.6262 50.5736 50.9752C53.6716 45.3242 53.4521 38.7067 49.9862 33.2735ZM21.818 3.01847L21.8265 3.02702C23.6257 4.82608 26.5579 4.831 28.364 3.03769L28.3976 3.00417C29.289 2.119 30.737 2.12158 31.628 3.01261L31.6337 3.01835C33.4391 4.82362 36.3765 4.82362 38.1819 3.01835C38.9165 2.28378 40.0306 2.15451 40.8988 2.63055L38.3004 11.7158H21.7068L19.1015 2.63044C19.9697 2.15451 21.0835 2.28401 21.818 3.01847ZM48.5183 49.8485C45.8381 54.7374 40.9093 57.6562 35.3339 57.6562H24.6662C19.0908 57.6562 14.162 54.7375 11.4818 49.8485C8.80154 44.9596 8.99151 39.2346 11.9899 34.5341L21.4622 19.6851H24.7263C25.3736 19.6851 25.8982 19.1604 25.8982 18.5131C25.8982 17.8659 25.3736 17.3412 24.7263 17.3412H20.8197C19.915 17.3412 19.179 16.6052 19.179 15.7004C19.179 14.7957 19.915 14.0597 20.8197 14.0597H20.8236H39.1803C40.085 14.0597 40.821 14.7957 40.821 15.7004C40.821 16.6052 40.085 17.3412 39.1803 17.3412H35.2738C34.6265 17.3412 34.1019 17.8659 34.1019 18.5131C34.1019 19.1604 34.6265 19.6851 35.2738 19.6851H38.5378L48.0102 34.5341C51.0086 39.2345 51.1986 44.9595 48.5183 49.8485Z" fill="white"/>
        <path d="M32.0662 38.2733C31.7722 38.1693 31.4721 38.0612 31.172 37.9488V32.6373C31.9666 32.8711 32.4973 33.2502 32.5198 33.2666C33.0353 33.6528 33.7667 33.5503 34.1563 33.0362C34.5471 32.5203 34.4458 31.7853 33.9299 31.3943C33.8611 31.3422 32.7714 30.5333 31.172 30.2271V29.0607C31.172 28.4135 30.6474 27.8888 30.0001 27.8888C29.3528 27.8888 28.8281 28.4135 28.8281 29.0607V30.2186C28.6296 30.2567 28.4284 30.3049 28.2245 30.3662C26.5751 30.8618 25.3422 32.2723 25.0069 34.0474C24.7009 35.6682 25.2202 37.2314 26.3621 38.127C26.9819 38.613 27.7562 39.0569 28.8281 39.5282V46.325C27.9052 46.2667 27.2879 46.0567 26.2587 45.3834C25.7171 45.0289 24.9906 45.1809 24.6363 45.7225C24.2819 46.2642 24.4338 46.9905 24.9755 47.3449C26.4763 48.3266 27.4925 48.6047 28.8281 48.6704V49.8824C28.8281 50.5296 29.3528 51.0543 30.0001 51.0543C30.6474 51.0543 31.172 50.5296 31.172 49.8824V48.5487C33.6816 47.999 35.1494 45.9049 35.4787 43.9459C35.9092 41.3847 34.5697 39.1581 32.0662 38.2733ZM27.8087 36.2826C27.3582 35.9293 27.1671 35.2394 27.3101 34.4822C27.4416 33.7858 27.9102 32.9461 28.8281 32.6354V36.9274C28.4428 36.722 28.0951 36.5073 27.8087 36.2826ZM33.1672 43.5571C32.9984 44.5609 32.3209 45.6255 31.1719 46.0959V40.4426C31.2101 40.4562 31.2463 40.4694 31.285 40.4831C33.3862 41.2258 33.2569 43.0238 33.1672 43.5571Z" fill="white"/>
        <path d="M30.0001 19.6851C30.3083 19.6851 30.6107 19.5597 30.8286 19.3417C31.0466 19.1237 31.172 18.8214 31.172 18.5131C31.172 18.2049 31.0466 17.9025 30.8286 17.6846C30.6107 17.4666 30.3083 17.3412 30.0001 17.3412C29.6919 17.3412 29.3895 17.4666 29.1715 17.6846C28.9535 17.9025 28.8281 18.2049 28.8281 18.5131C28.8281 18.8214 28.9535 19.1237 29.1715 19.3417C29.3895 19.5597 29.6917 19.6851 30.0001 19.6851Z" fill="white"/>
    </g>
    <defs>
        <clipPath id="clip0">
            <rect width="60" height="60" rx="5" fill="white"/>
        </clipPath>
    </defs>
</svg>
