<svg width="60" height="60" viewBox="0 0 60 60" fill="none" xmlns="http://www.w3.org/2000/svg">
    <g clip-path="url(#clip0)">
        <path d="M28.2689 44.4011C27.8176 44.0699 27.1825 44.1666 26.8509 44.6182L26.7256 44.7887C26.3943 45.2398 26.4908 45.8739 26.9415 46.2059C27.1225 46.3394 27.3335 46.4039 27.5424 46.4039C27.8533 46.4039 28.1602 46.2614 28.359 45.9921L28.4861 45.8192C28.8177 45.3677 28.7204 44.7328 28.2689 44.4011Z" fill="white"/>
        <path d="M28.5335 54.0517L25.9246 49.3078L28.3604 45.9902C28.6922 45.5387 28.5948 44.9037 28.1432 44.5721C27.6916 44.2403 27.0567 44.3377 26.7252 44.7895L23.9059 48.6291C23.6721 48.9474 23.6444 49.3723 23.8346 49.7184L26.7559 55.0294V55.0293C26.9407 55.3651 27.2877 55.555 27.6457 55.555C27.8111 55.5549 27.9786 55.5145 28.1337 55.4293C28.6245 55.1594 28.8035 54.5426 28.5335 54.0517Z" fill="white"/>
        <path d="M36.0943 48.6293L33.2865 44.8052C33.0536 44.4882 32.6591 44.3341 32.273 44.4105C31.8871 44.4863 31.58 44.7786 31.4846 45.16C31.4114 45.453 31.4724 45.7631 31.6511 46.0065L34.075 49.3079L31.4839 54.0197C31.4016 54.1693 31.3584 54.3381 31.3584 54.509C31.3584 54.972 31.672 55.3763 32.1205 55.4915C32.2045 55.5132 32.2892 55.5237 32.3729 55.5237C32.7361 55.5237 33.0802 55.3277 33.2618 54.9981L36.1654 49.7187C36.3559 49.3725 36.328 48.9475 36.0943 48.6293Z" fill="white"/>
        <path d="M37.7017 32.6874C37.3681 32.5122 36.9647 32.5361 36.6543 32.7501C36.0509 33.1657 35.491 33.6061 34.9901 34.0588C32.2601 36.5268 29.6664 36.1928 29.5648 36.1783C29.5036 36.1687 29.4414 36.1642 29.3799 36.1662C28.3009 36.1939 26.3556 35.208 24.2977 33.5917C23.9829 33.3446 23.6602 33.109 23.3379 32.8915C23.0271 32.6815 22.6255 32.6603 22.2943 32.8364C21.9631 33.0125 21.756 33.357 21.756 33.7322V37.2122C21.756 37.52 21.896 37.8108 22.136 38.0035C22.1644 38.0263 22.1939 38.0474 22.2244 38.0669L29.4175 42.8735C29.4187 42.8742 29.4197 42.8751 29.4209 42.8759L29.4399 42.8886C29.6092 43.0006 29.8043 43.0572 30.0001 43.0572C30.1649 43.0572 30.3297 43.0173 30.4803 42.9367C30.512 42.9198 30.5425 42.9011 30.5718 42.8812C30.5752 42.879 30.5786 42.8767 30.5821 42.8744C30.5861 42.8718 30.5901 42.8691 30.594 42.8664L37.7702 38.0712C37.799 38.0529 37.8271 38.0333 37.8542 38.0122C38.1004 37.82 38.2443 37.525 38.2443 37.2126V33.5855C38.2443 33.2084 38.0355 32.8628 37.7017 32.6874ZM36.2153 36.6697L30 40.8228L23.7849 36.6695V35.7469C25.2982 36.8467 27.5244 38.1957 29.3391 38.1956C29.3428 38.1956 29.3471 38.1956 29.3509 38.1956C29.9602 38.2629 33.0672 38.4461 36.2155 35.6842V36.6697H36.2153Z" fill="white"/>
        <path d="M31.0008 41.8762C30.9338 41.4739 30.6323 41.1508 30.2355 41.0561C29.8385 40.962 29.4239 41.1138 29.1825 41.4426L26.8508 44.6185C26.5191 45.0702 26.6164 45.7051 27.0682 46.0366C27.249 46.1695 27.4592 46.2335 27.6677 46.2335C27.9797 46.2335 28.2874 46.0899 28.4864 45.8191L30.8059 42.66C30.9378 42.4875 31.0147 42.2728 31.0147 42.0433C31.0146 41.9876 31.0099 41.9313 31.0008 41.8762Z" fill="white"/>
        <path d="M45.4549 9.17253C45.4348 9.01362 44.9596 5.58401 41.7313 4.23107C41.825 3.62873 41.8152 2.85459 41.4328 2.10142C40.9188 1.08915 39.9045 0.429505 38.418 0.14052C38.3543 0.128098 38.2896 0.121887 38.2245 0.121887H24.6089C19.0802 0.121887 14.5822 4.61979 14.5822 10.1487V15.4914C14.5822 16.8834 15.0566 18.2408 15.918 19.3133C16.345 19.8451 16.8709 20.7738 16.9503 22.1779C16.9812 22.7261 17.4401 23.1497 17.9917 23.1345C18.5406 23.119 18.9775 22.6695 18.9775 22.1205V15.1548C19.6663 12.3061 22.0172 11.7517 22.4214 11.6768H26.8256C27.3437 11.6768 27.8531 11.5977 28.34 11.4416C29.1774 11.173 30.506 10.6787 31.4732 10.3114C32.1204 10.0654 32.8368 10.0564 33.4904 10.286L38.2053 11.9412C40.5624 12.8107 40.9831 14.88 41.0353 15.2051V23.5649C41.0353 24.0959 41.4446 24.5364 41.9741 24.5759C41.9999 24.5778 42.0252 24.5788 42.0505 24.5788C42.5481 24.5787 42.9777 24.2142 43.053 23.7146C43.057 23.6885 43.462 21.072 44.7682 18.9772C45.2226 18.2479 45.463 17.4165 45.463 16.5727V9.30062C45.463 9.25784 45.4603 9.21507 45.4549 9.17253ZM43.434 16.5722C43.434 17.0254 43.3062 17.4749 43.064 17.8747V15.1357C43.064 15.0991 43.0621 15.0626 43.0581 15.0262C43.0421 14.8789 42.6229 11.4024 38.8981 10.0341C38.8936 10.0325 38.889 10.0308 38.8844 10.0292L34.1623 8.37143C33.63 8.18452 33.073 8.09124 32.5163 8.09124C31.9177 8.09124 31.3195 8.19917 30.7527 8.41479C29.3984 8.92925 28.3497 9.30788 27.7203 9.50968C27.434 9.60144 27.133 9.64808 26.8255 9.64808H22.3394C22.2959 9.64808 22.2523 9.65089 22.2091 9.6564C22.0374 9.67866 17.9913 10.2541 16.973 14.8179C16.9568 14.8905 16.9486 14.9645 16.9486 15.0388V17.1266C16.7277 16.6162 16.6108 16.0586 16.6108 15.4915V10.1489C16.6108 5.73893 20.1987 2.15099 24.6086 2.15099H38.1221C38.6816 2.27017 39.3615 2.51474 39.6194 3.01232C39.9352 3.62135 39.5755 4.45994 39.5751 4.46065C39.4454 4.73662 39.4469 5.05619 39.5788 5.331C39.7107 5.6058 39.9594 5.80666 40.2559 5.87803C42.8385 6.49971 43.3652 8.97671 43.4339 9.37737V16.5722H43.434Z" fill="white"/>
        <path d="M43.0582 15.0262C43.0422 14.8789 42.623 11.4024 38.8982 10.0341C38.8937 10.0325 38.8891 10.0308 38.8845 10.0292L34.1624 8.37144C33.0574 7.98354 31.8466 7.99901 30.7526 8.41456C29.3984 8.92902 28.3497 9.30765 27.7203 9.50956C27.434 9.60132 27.1329 9.64785 26.8254 9.64785H22.3394C22.2959 9.64785 22.2523 9.65066 22.209 9.65617C22.0374 9.67843 17.9912 10.2538 16.973 14.8177C16.9568 14.8902 16.9486 14.9643 16.9486 15.0386V23.7592C16.9486 23.7667 16.9487 23.7742 16.9488 23.7817C16.9555 24.0847 17.1699 31.2386 22.1128 34.5104L22.1384 34.5284C22.1596 34.5434 22.1808 34.5584 22.203 34.5733C22.4848 34.7636 22.7678 34.9702 23.0446 35.1875C24.4846 36.3182 27.1983 38.1957 29.3391 38.1957C29.3431 38.1957 29.3468 38.1957 29.3509 38.1957C29.4672 38.2085 29.6747 38.2256 29.9562 38.2256C31.1695 38.2256 33.7579 37.9077 36.3506 35.5639C36.7857 35.1707 37.2749 34.7861 37.8053 34.4207L37.8812 34.3677C37.9059 34.3502 37.9306 34.3326 37.9562 34.3155C39.605 33.2081 42.4606 30.3506 43.0602 23.6552C43.0628 23.6252 43.0642 23.5948 43.0642 23.5646V15.1357C43.0641 15.0992 43.062 15.0627 43.0582 15.0262ZM41.0351 23.5188C40.4824 29.5612 37.9079 31.9037 36.8248 32.6311C36.7864 32.6569 36.7484 32.6837 36.7104 32.7104L36.6542 32.75C36.0508 33.1657 35.4909 33.6061 34.99 34.0588C32.2702 36.5176 29.6849 36.1951 29.5581 36.1773C29.4992 36.1685 29.4394 36.1647 29.3798 36.1664C28.3008 36.194 26.3555 35.2081 24.2976 33.5919C23.9828 33.3446 23.6601 33.1091 23.3383 32.8919L23.3133 32.8743C23.2889 32.857 23.2647 32.8398 23.2361 32.8208C19.2472 30.1807 18.9863 24.0024 18.9775 23.7446V15.1547C19.6688 12.2956 22.0342 11.7475 22.4198 11.6767H26.8255C27.3436 11.6767 27.853 11.5976 28.34 11.4415C29.1774 11.1729 30.5061 10.6786 31.4732 10.3112C32.1203 10.0653 32.8368 10.0562 33.4904 10.2859L38.2053 11.9411C40.5624 12.8106 40.9831 14.8799 41.0353 15.205V23.5188H41.0351Z" fill="white"/>
        <path d="M30.9073 41.5897C30.7493 41.2735 30.438 41.0625 30.0858 41.0325C29.7343 41.0034 29.3914 41.158 29.1822 41.443L26.7522 44.7526C26.4209 45.204 26.5177 45.8385 26.9688 46.1702C27.1497 46.3033 27.3603 46.3677 27.569 46.3677C27.8803 46.3677 28.1875 46.2248 28.3864 45.9549L30.8165 42.6575C30.9451 42.4831 31.0144 42.2602 31.0144 42.0437C31.0146 41.8863 30.9776 41.7307 30.9073 41.5897Z" fill="white"/>
        <path d="M30.9724 57.9231C30.5913 57.5246 29.9617 57.5034 29.5548 57.8757L29.3229 58.0878C28.9757 58.4052 28.8924 58.9199 29.1218 59.3308L29.129 59.3436C29.2839 59.6212 29.5602 59.8101 29.8751 59.8538C29.9217 59.8602 29.9684 59.8634 30.0148 59.8634C30.2818 59.8634 30.5405 59.7578 30.7321 59.5662L30.9567 59.3413C31.3466 58.9514 31.3536 58.3214 30.9724 57.9231Z" fill="white"/>
        <path d="M30.6774 58.0877L30.4454 57.8756C30.0386 57.5034 29.4088 57.5247 29.0277 57.9231C28.6465 58.3218 28.6535 58.9519 29.0435 59.3416L29.2685 59.5665C29.4601 59.7581 29.7186 59.8636 29.9857 59.8636C30.0334 59.8636 30.0813 59.8603 30.1293 59.8534C30.4452 59.8083 30.7215 59.6169 30.8752 59.3371L30.8823 59.3243C31.1071 58.9141 31.0225 58.4033 30.6774 58.0877Z" fill="white"/>
        <path d="M30.6945 58.1035L30.6932 58.1024C30.5365 57.9559 30.3339 57.8593 30.1106 57.8348C29.8117 57.8022 29.5205 57.9035 29.3087 58.1007L29.3057 58.1035C29.1006 58.2906 28.9812 58.5536 28.9752 58.8311C28.9692 59.1089 29.0773 59.3767 29.274 59.5724L29.2847 59.583C29.4826 59.7798 29.7413 59.8781 30 59.8781C30.2597 59.8781 30.5193 59.779 30.7172 59.5811L30.7279 59.5705C30.9238 59.3744 31.0311 59.1069 31.0247 58.8299C31.0186 58.5527 30.8992 58.2903 30.6945 58.1035Z" fill="white"/>
        <path d="M30.329 41.0613C29.9089 40.9268 29.4479 41.0827 29.1921 41.4425C28.9059 41.8454 28.9531 42.3944 29.3018 42.7447C29.4979 42.9418 29.7583 43.0428 30.0207 43.0428C30.2245 43.0428 30.4293 42.9819 30.6061 42.8574C30.8761 42.6675 31.0367 42.3581 31.0367 42.0279V42.0254C31.0367 41.5839 30.7496 41.1955 30.329 41.0613Z" fill="white"/>
        <path d="M30.8244 41.4342L30.8157 41.4225C30.5554 41.0702 30.0984 40.9251 29.6825 41.0621C29.2666 41.1991 28.9856 41.5877 28.9856 42.0255V42.0429C28.9856 42.4164 29.1952 42.7568 29.5243 42.9335C29.6734 43.0135 29.8379 43.053 30.0022 43.053C30.2004 43.053 30.3983 42.9956 30.5685 42.8829C30.8004 42.7294 30.9592 42.4873 31.0076 42.2134C31.056 41.9396 30.9897 41.6578 30.8244 41.4342Z" fill="white"/>
        <path d="M42.068 38.2474C41.9628 37.9695 41.7412 37.7518 41.4616 37.6517L37.5721 36.2574C37.5405 36.2462 37.5078 36.2361 37.4753 36.2281C37.1976 36.1586 36.9035 36.2096 36.6656 36.3687L29.4588 41.1845C29.4569 41.1857 29.4548 41.187 29.4528 41.1884L30.0187 42.0298L29.4402 41.197C29.2288 41.3368 29.0773 41.5511 29.0159 41.797C28.9822 41.932 28.9767 42.073 28.9995 42.2102C29.0257 42.367 29.0882 42.5156 29.1825 42.6439L34.4588 49.83C34.6506 50.0913 34.9548 50.2441 35.2763 50.2441C35.2984 50.2441 35.3205 50.2433 35.3427 50.2418C35.6883 50.219 35.9985 50.0219 36.1653 49.7183L42.008 39.0955C42.1513 38.8351 42.1732 38.525 42.068 38.2474ZM35.1535 47.3481L31.4451 42.2973L37.368 38.3395L39.6571 39.1602L35.1535 47.3481Z" fill="white"/>
        <path d="M30.9995 41.8682C30.9518 41.5958 30.7951 41.3548 30.5655 41.2007L23.3346 36.3689C23.1045 36.2149 22.8208 36.1622 22.5504 36.2222C22.5089 36.2313 22.4681 36.2433 22.4282 36.2576L18.5386 37.6519C18.259 37.7521 18.0374 37.9698 17.9323 38.2475C17.8272 38.5254 17.849 38.8352 17.9922 39.0956L23.8348 49.7185C24.0017 50.022 24.3119 50.2192 24.6574 50.2419C24.6795 50.2433 24.7016 50.244 24.7236 50.244C25.0452 50.244 25.3493 50.0912 25.5414 49.8298L28.3607 45.9901C28.3629 45.9872 28.3651 45.984 28.3674 45.9809L30.8179 42.6432C30.9815 42.4203 31.0471 42.1405 30.9995 41.8682ZM26.7254 44.7889C26.723 44.7922 26.7206 44.7955 26.7182 44.7988L24.8463 47.3482L20.3428 39.1602L22.632 38.3396L28.5547 42.2974L26.7254 44.7889Z" fill="white"/>
        <path d="M59.9499 55.5651L58.6412 47.6628C58.2289 45.1725 56.4981 43.0918 54.1244 42.2333L41.4641 37.6529C41.0738 37.5118 40.6375 37.6224 40.3616 37.932C40.0857 38.2417 40.0261 38.6882 40.2113 39.0596L42.8545 44.3605L40.2608 44.4004C39.9087 44.4059 39.5844 44.5934 39.4045 44.8963C39.2245 45.1991 39.2145 45.5734 39.3778 45.8854L40.4416 47.9167L29.5546 57.8761C29.5434 57.8863 29.5325 57.8966 29.5219 57.9073L29.2971 58.132C28.9787 58.4505 28.9083 58.9409 29.1245 59.336L29.1324 59.3504C29.3104 59.6756 29.6517 59.878 30.0225 59.878H56.2926C57.3839 59.878 58.4145 59.4007 59.1201 58.5684C59.8258 57.7362 60.1282 56.6414 59.9499 55.5651ZM57.573 57.2563C57.2533 57.6332 56.7866 57.8493 56.2927 57.8493H32.5896L42.3878 48.8863C42.7276 48.5756 42.8155 48.0751 42.6018 47.6672L41.9399 46.4035L44.4976 46.3642C44.8463 46.3589 45.1675 46.1748 45.3488 45.877C45.5298 45.579 45.5454 45.2091 45.3899 44.8971L43.159 40.4233L53.4347 44.1409C55.1193 44.7502 56.3475 46.2268 56.6402 47.9941L57.9488 55.8964C57.9488 55.8966 57.9488 55.8966 57.9488 55.8966C58.0294 56.3839 57.8925 56.8794 57.573 57.2563Z" fill="white"/>
        <path d="M30.7032 58.1116L30.6913 58.1009C30.2898 57.7374 29.6732 57.7536 29.2912 58.1377L29.2806 58.1484C28.9918 58.439 28.9061 58.875 29.0634 59.2533C29.2207 59.6317 29.5903 59.8781 30 59.8781H30.0223C30.4417 59.8781 30.818 59.6198 30.9687 59.2285C31.1198 58.837 31.0142 58.3931 30.7032 58.1116Z" fill="white"/>
        <path d="M30.6713 58.0824C30.4411 57.8751 30.1288 57.7842 29.8229 57.8364C29.5174 57.8881 29.2523 58.0769 29.1032 58.3485L29.0962 58.3613C28.8823 58.7512 28.9474 59.2349 29.2566 59.5546L29.2603 59.5583C29.459 59.7638 29.7239 59.8674 29.9894 59.8674C30.2338 59.8674 30.4788 59.7795 30.6729 59.6022L30.6835 59.5926C30.7756 59.5087 30.8516 59.4081 30.9074 59.2965C31.1116 58.8884 31.0106 58.3875 30.6713 58.0824Z" fill="white"/>
        <path d="M30.7152 58.1443L30.7109 58.14C30.7082 58.1373 30.7054 58.1345 30.7029 58.1319L30.4779 57.9071C30.4673 57.8965 30.4564 57.886 30.4454 57.8761L19.5583 47.9166L20.6222 45.8854C20.7857 45.5735 20.7755 45.1991 20.5956 44.8963C20.4156 44.5936 20.0915 44.4059 19.7394 44.4004L17.1454 44.3605L19.7887 39.0596C19.9739 38.6884 19.9141 38.2417 19.6383 37.932C19.3626 37.6223 18.9257 37.5115 18.5358 37.6529L5.8757 42.2333C3.50194 43.0917 1.77108 45.1723 1.3587 47.6628L0.0500627 55.5651C-0.12818 56.6419 0.174399 57.7364 0.880103 58.5685C1.58592 59.4007 2.61659 59.878 3.70761 59.878H30.0001C30.4109 59.878 30.7811 59.6301 30.9377 59.2505C31.0944 58.8708 31.0065 58.4339 30.7152 58.1443ZM3.70773 57.8492C3.21366 57.8492 2.74702 57.6332 2.42757 57.2563C2.10811 56.8795 1.97124 56.3839 2.05186 55.8964L3.3605 47.9941C3.65312 46.2266 4.88136 44.7502 6.56593 44.1409L16.8415 40.4233L14.6108 44.8968C14.4551 45.2089 14.4706 45.5788 14.6519 45.8768C14.8329 46.1747 15.1544 46.3586 15.503 46.3639L18.0608 46.4034L17.3989 47.667C17.1853 48.0749 17.2731 48.5755 17.6128 48.8861L27.4109 57.8492H3.70773Z" fill="white"/>
        <path d="M33.4529 45.6513C33.5262 45.3584 33.4651 45.0482 33.2864 44.8048L30.8177 41.4428C30.5583 41.0893 30.1008 40.9488 29.6843 41.0855C29.4594 41.1592 29.2741 41.308 29.1508 41.4982L26.7273 44.7866C26.6926 44.8335 26.6618 44.8839 26.6356 44.9361C26.4696 45.2684 26.4983 45.6647 26.7104 45.9695L27.7425 47.4516L26.643 54.3817C26.6078 54.6042 26.6476 54.8321 26.7561 55.0295L29.1114 59.3117C29.2896 59.6359 29.6304 59.8372 30.0002 59.8372C30.3702 59.8372 30.7108 59.6359 30.8891 59.3117L33.2619 54.9978C33.3442 54.848 33.3874 54.6798 33.3874 54.509V54.5084C33.3874 54.4552 33.3831 54.402 33.3749 54.3494L32.2805 47.4517L33.3014 45.9859C33.3715 45.8844 33.4232 45.7709 33.4529 45.6513ZM30.0002 56.718L28.7012 54.3563L29.8103 47.3661C29.8514 47.1072 29.7906 46.8425 29.6408 46.6275L28.7907 45.4066L30.0032 43.7616L31.2219 45.4214L30.382 46.6275C30.2323 46.8424 30.1715 47.1072 30.2126 47.3661L31.3166 54.3244L30.0002 56.718Z" fill="white"/>
    </g>
    <defs>
        <clipPath id="clip0">
            <rect width="60" height="60" rx="5" fill="white"/>
        </clipPath>
    </defs>
</svg>
