<svg width="60" height="60" viewBox="0 0 60 60" fill="none" xmlns="http://www.w3.org/2000/svg">
    <g clip-path="url(#clip0)">
        <path d="M9.96939 53.3122C9.75154 53.0941 9.44919 52.9689 9.14099 52.9689C8.83279 52.9689 8.53044 53.0941 8.31248 53.3122C8.09451 53.5303 7.96912 53.8325 7.96912 54.1408C7.96912 54.449 8.09439 54.7513 8.31248 54.9692C8.53044 55.1871 8.83279 55.3126 9.14099 55.3126C9.44919 55.3126 9.75154 55.1872 9.96939 54.9692C10.1874 54.7513 10.3129 54.449 10.3129 54.1408C10.3129 53.8325 10.1875 53.5302 9.96939 53.3122Z" fill="white"/>
        <path d="M55.0224 21.438C54.8044 21.2199 54.5032 21.0947 54.1938 21.0947C53.8856 21.0947 53.5833 21.2199 53.3653 21.438C53.1475 21.656 53.022 21.9583 53.022 22.2665C53.022 22.5747 53.1474 22.8771 53.3653 23.0949C53.5833 23.3129 53.8856 23.4384 54.1938 23.4384C54.5032 23.4384 54.8044 23.313 55.0224 23.0949C55.2414 22.8771 55.3668 22.5747 55.3668 22.2665C55.3668 21.9583 55.2414 21.656 55.0224 21.438Z" fill="white"/>
        <path d="M59.6566 0.343242C59.4367 0.123516 59.1386 0 58.8277 0L30.0003 0.00152344C29.3532 0.00152344 28.8285 0.526289 28.8285 1.1734V4.52461L17.7204 7.50105C17.0952 7.66863 16.7242 8.31117 16.8918 8.93625L22.6489 30.4216L17.6685 35.402C17.0347 34.4764 15.9704 33.8678 14.7665 33.8678H3.51685C1.57833 33.8678 0.00134277 35.4449 0.00134277 37.3833V56.4844C0.00134277 58.4229 1.57833 60 3.51685 60H14.7666C16.4135 60 17.7988 58.8614 18.1785 57.3305L19.5719 58.5456C20.6476 59.4836 22.0257 60.0001 23.4529 60.0001H58.8279C59.475 60.0001 59.9998 59.4754 59.9998 58.8282V1.17188C59.9996 0.861094 59.8763 0.562969 59.6566 0.343242ZM15.9383 56.4845C15.9383 57.1305 15.4126 57.6564 14.7664 57.6564H3.51673C2.87056 57.6564 2.34486 57.1307 2.34486 56.4845V37.3834C2.34486 36.7372 2.87056 36.2115 3.51673 36.2115H7.96974V49.7109C7.96974 50.358 8.49451 50.8828 9.14161 50.8828C9.78872 50.8828 10.3135 50.358 10.3135 49.7109V36.2115H14.7665C15.4127 36.2115 15.9384 36.7372 15.9384 37.3834V56.4845H15.9383ZM19.4589 9.4616L28.8285 6.95098V11.2934L28.0431 11.5038C27.7428 11.5843 27.487 11.7806 27.3316 12.0498C27.1762 12.319 27.134 12.6388 27.2145 12.939C27.6649 14.6196 26.664 16.3532 24.9834 16.8035C24.6828 16.8841 24.4265 17.0808 24.2712 17.3505C24.1159 17.6202 24.0741 17.9406 24.1553 18.2411L28.7232 35.1557H26.3712L25.1592 30.4138C25.1206 30.2629 25.0531 30.1237 24.9627 30.0028L19.4589 9.4616ZM28.8285 16.6675V26.5559L26.6911 18.6416C27.584 18.1806 28.3147 17.4908 28.8285 16.6675ZM45.6642 57.6562H23.4527C22.5919 57.6562 21.7607 57.3448 21.112 56.7791L18.282 54.311V38.1032L23.3982 32.987L24.3261 36.6175C24.4587 37.1362 24.926 37.4991 25.4614 37.4991L48.5009 37.5005C49.4056 37.5005 50.1415 38.2364 50.1415 39.1411C50.1415 40.0458 49.4056 40.7817 48.5009 40.7817H36.6954C36.0483 40.7817 35.5236 41.3065 35.5236 41.9536C35.5236 42.6007 36.0483 43.1255 36.6954 43.1255H52.1689C53.0736 43.1255 53.8095 43.8614 53.8095 44.7661C53.8095 45.6708 53.0736 46.4067 52.1689 46.4067H36.6954C36.0483 46.4067 35.5236 46.9315 35.5236 47.5786C35.5236 48.2257 36.0483 48.7505 36.6954 48.7505H49.6614C50.5661 48.7505 51.302 49.4864 51.302 50.3911C51.302 51.2958 50.5661 52.0317 49.6614 52.0317H36.6954C36.0483 52.0317 35.5236 52.5565 35.5236 53.2036C35.5236 53.8507 36.0483 54.3755 36.6954 54.3755H45.6642C46.5688 54.3755 47.3048 55.1114 47.3048 56.0161C47.3047 56.9203 46.5687 57.6562 45.6642 57.6562ZM57.6561 57.6562H57.656H49.2936C49.5208 57.1555 49.6484 56.6004 49.6484 56.0156C49.6484 55.4309 49.5208 54.8757 49.2936 54.375H49.6614C51.8583 54.375 53.6457 52.5877 53.6457 50.3907C53.6457 49.75 53.4927 49.1445 53.2227 48.6075C54.9098 48.1441 56.153 46.5979 56.153 44.7659C56.153 43.8771 55.8603 43.0555 55.3666 42.3922V27.5399C55.3666 26.8928 54.8418 26.368 54.1947 26.368C53.5476 26.368 53.0228 26.8928 53.0228 27.5399V40.8749C52.7474 40.8145 52.4618 40.7817 52.1686 40.7817H52.1302C52.3574 40.281 52.4851 39.7259 52.4851 39.1411C52.4851 36.9441 50.6977 35.1568 48.5008 35.1568H46.617C48.6173 34.299 50.0221 32.3108 50.0221 30C50.0221 26.9075 47.5063 24.3916 44.4139 24.3916C41.3215 24.3916 38.8056 26.9075 38.8056 30C38.8056 32.3108 40.2106 34.299 42.2108 35.1568H35.8049V12.8746C37.8984 12.4184 39.5502 10.7666 40.0063 8.67305H48.8213C49.2774 10.7666 50.9293 12.4184 53.0227 12.8746V16.5179C53.0227 17.165 53.5475 17.6898 54.1946 17.6898C54.8417 17.6898 55.3665 17.165 55.3665 16.5179V11.8283C55.3665 11.1812 54.8417 10.6564 54.1946 10.6564C52.4547 10.6564 51.0394 9.24094 51.0394 7.50117C51.0394 6.85406 50.5147 6.3293 49.8676 6.3293H38.9602C38.3131 6.3293 37.7883 6.85406 37.7883 7.50117C37.7883 9.24105 36.3729 10.6564 34.6332 10.6564C33.9861 10.6564 33.4613 11.1812 33.4613 11.8283V35.1567H31.1724V2.34504L57.6561 2.34375V57.6562ZM44.4141 33.2646C42.614 33.2646 41.1496 31.8001 41.1496 30.0001C41.1496 28.2001 42.6141 26.7355 44.4141 26.7355C46.2141 26.7355 47.6786 28.2 47.6786 30C47.6786 31.8 46.2142 33.2646 44.4141 33.2646Z" fill="white"/>
    </g>
    <defs>
        <clipPath id="clip0">
            <rect width="60" height="60" rx="5" fill="white"/>
        </clipPath>
    </defs>
</svg>
