<svg width="60" height="60" viewBox="0 0 60 60" fill="none" xmlns="http://www.w3.org/2000/svg">
    <path d="M46 0H14.0001C12.3461 0 11.0001 1.34602 11.0001 3C11.0001 4.65398 12.3461 6 14.0001 6H46.0001C47.6541 6 49.0001 4.65398 49.0001 3C49.0001 1.34602 47.654 0 46 0ZM46 3.99996H14.0001C13.449 3.99996 13.0001 3.55195 13.0001 3C13.0001 2.44805 13.449 2.00004 14.0001 2.00004H46.0001C46.5511 2.00004 47.0001 2.44805 47.0001 3C47.0001 3.55195 46.551 3.99996 46 3.99996Z" fill="white"/>
    <path d="M46 53.9999H14.0001C12.3461 53.9999 11.0001 55.346 11.0001 56.9999C11.0001 58.6539 12.3461 59.9999 14.0001 59.9999H46.0001C47.6541 59.9999 49.0001 58.6539 49.0001 56.9999C49.0001 55.346 47.654 53.9999 46 53.9999ZM46 57.9999H14.0001C13.449 57.9999 13.0001 57.5519 13.0001 56.9999C13.0001 56.448 13.449 56 14.0001 56H46.0001C46.5511 56 47.0001 56.448 47.0001 56.9999C47.0001 57.5519 46.551 57.9999 46 57.9999Z" fill="white"/>
    <path d="M37.1261 26.288C42.204 21.21 45 14.459 45 7.27903V5.00008C45 4.44708 44.552 4.00012 44 4.00012H16C15.448 4.00012 15 4.44708 15 5.00008V7.27903C15 14.46 17.796 21.21 22.873 26.288L23.878 27.293C24.591 28.006 25 28.992 25 30C25 31.0081 24.591 31.9941 23.8789 32.7071L22.8739 33.7121C17.796 38.79 15 45.54 15 52.7211V55C15 55.553 15.448 56 16 56H43.9999C44.5519 56 44.9999 55.553 44.9999 55V52.7211C44.9999 45.5411 42.2039 38.79 37.1259 33.7121L36.1209 32.7071C35.3979 31.984 34.9999 31.0231 34.9999 30C34.9999 28.977 35.3979 28.0161 36.1209 27.293L37.1261 26.288ZM34.707 25.879C33.606 26.9791 33 28.442 33 30C33 31.5581 33.606 33.021 34.707 34.1211L35.712 35.1261C40.412 39.8261 43 46.075 43 52.7211V54H17V52.7211C17 46.0741 19.588 39.8261 24.287 35.1261L25.292 34.1211C26.394 33.021 27 31.557 27 30C27 28.4431 26.394 26.9791 25.293 25.879L24.288 24.874C19.588 20.174 17 13.925 17 7.27903V6.00004H43.0001V7.27903C43.0001 13.9251 40.4121 20.174 35.7121 24.874L34.707 25.879Z" fill="white"/>
    <path d="M38.4509 16.847C38.3499 16.5931 38.006 16 36.9999 16C31.8039 16 29.4889 14.8869 28.5708 14.2229C27.4258 13.394 25.9569 13.1769 24.6378 13.6439C23.3788 14.0889 22.4568 15.0789 22.1098 16.3589C22.0198 16.692 22.0038 16.9079 22.0038 16.9079C21.9888 17.1049 22.0318 17.318 22.1288 17.4909C23.0658 19.152 24.1468 20.9039 25.7028 22.4599L26.7067 23.4649C28.1858 24.942 28.9997 26.9079 28.9997 28.9999C28.9997 29.5529 29.4478 29.9999 29.9997 29.9999C30.5517 29.9999 30.9997 29.5529 30.9997 28.9999C30.9997 26.909 31.8137 24.9429 33.2916 23.4649L34.2977 22.4589C34.5447 22.2129 34.8666 21.9089 35.2206 21.5769C37.8059 19.146 38.8929 17.963 38.4509 16.847ZM33.849 20.12C33.479 20.469 33.1409 20.7871 32.883 21.045L31.8769 22.0511C31.1 22.8271 30.47 23.711 29.9989 24.669C29.5279 23.711 28.8979 22.8271 28.1208 22.0511L27.1168 21.0461C25.8888 19.8171 24.9898 18.4641 24.0548 16.8331C24.3018 15.9981 24.9418 15.658 25.3048 15.529C26.0028 15.282 26.7858 15.399 27.3978 15.8431C28.6717 16.7651 31.1838 17.852 35.9958 17.9861C35.3779 18.682 34.4079 19.595 33.849 20.12Z" fill="white"/>
    <path d="M40.931 50.922C40.68 47.68 39.38 46.3339 37.876 44.7739C37.6731 44.5629 37.4611 44.344 37.244 44.112C35.988 42.7699 34.214 42 32.375 42H27.624C25.786 42 24.011 42.77 22.755 44.112C22.5379 44.344 22.327 44.562 22.1239 44.773C20.6189 46.333 19.3189 47.68 19.069 50.923C19.0469 51.201 19.1429 51.475 19.3319 51.68C19.5219 51.8841 19.787 52.0001 20.0659 52.0001H39.9338C40.2118 52.0001 40.4778 51.8841 40.6678 51.6791C40.8569 51.474 40.952 51.199 40.931 50.922ZM21.2049 50C21.544 48.2541 22.352 47.418 23.5639 46.162C23.7739 45.9441 23.9919 45.7171 24.216 45.478C25.095 44.538 26.3369 44 27.624 44H32.375C33.663 44 34.905 44.539 35.784 45.4771C36.009 45.7191 36.227 45.9441 36.438 46.1631C37.649 47.4191 38.456 48.2551 38.7961 50H21.2049Z" fill="white"/>
    <path d="M29.9701 32C29.4181 32 28.9701 32.447 28.9701 33V33.9999C28.9701 34.5529 29.4181 34.9999 29.9701 34.9999C30.522 34.9999 30.97 34.5529 30.97 33.9999V33C30.97 32.447 30.522 32 29.9701 32Z" fill="white"/>
    <path d="M29.9701 36.9999C29.4181 36.9999 28.9701 37.4469 28.9701 37.9999V38.9999C28.9701 39.5529 29.4181 39.9998 29.9701 39.9998C30.522 39.9998 30.97 39.5529 30.97 38.9999V37.9999C30.97 37.447 30.522 36.9999 29.9701 36.9999Z" fill="white"/>
</svg>
