<svg width="60" height="60" viewBox="0 0 60 60" fill="none" xmlns="http://www.w3.org/2000/svg">
    <path d="M53.6538 2.88458H6.34617C2.84684 2.88458 0 5.73154 0 9.23075V35.1922V39.2308C0 42.73 2.84684 45.5769 6.34617 45.5769H21.6695L19.8233 54.8077H13.8462C13.2089 54.8077 12.6923 55.3242 12.6923 55.9615C12.6923 56.5988 13.2089 57.1153 13.8462 57.1153H46.1538C46.7911 57.1153 47.3077 56.5988 47.3077 55.9615C47.3077 55.3242 46.7911 54.8077 46.1538 54.8077H40.1767L38.3305 45.5769H53.6538C57.153 45.5769 60 42.7301 60 39.2308V35.1922V9.23075C60 5.73154 57.1532 2.88458 53.6538 2.88458ZM22.1767 54.8077L24.0229 45.5769H35.9771L37.8233 54.8077H22.1767ZM57.6923 39.2308C57.6923 41.4576 55.8807 43.2693 53.6538 43.2693H6.34617C4.11937 43.2693 2.30766 41.4577 2.30766 39.2308V36.3462H57.6922V39.2308H57.6923ZM57.6923 34.0385H2.30766V31.7309H9.23074C9.86801 31.7309 10.3846 31.2143 10.3846 30.577C10.3846 29.9398 9.86801 29.4232 9.23074 29.4232H2.30766V9.23075C2.30766 7.00396 4.11926 5.19224 6.34617 5.19224H53.6538C55.8806 5.19224 57.6923 7.00384 57.6923 9.23075V34.0385Z" fill="white"/>
    <path d="M30 37.5C28.7275 37.5 27.6923 38.5352 27.6923 39.8077C27.6923 41.0801 28.7275 42.1153 30 42.1153C31.2724 42.1153 32.3076 41.0801 32.3076 39.8077C32.3076 38.5352 31.2724 37.5 30 37.5Z" fill="white"/>
    <path d="M39.4467 24.9826L36.999 22.5349L39.0387 20.4952C39.3353 20.1986 39.4476 19.7645 39.3319 19.3612C39.2163 18.9581 38.891 18.6494 38.4822 18.555L27.8756 16.1073C27.488 16.0181 27.0816 16.1344 26.8001 16.4157C26.5189 16.6971 26.4023 17.1034 26.4917 17.4911L28.9396 28.0977C29.034 28.5063 29.3426 28.8317 29.7459 28.9474C30.1492 29.0629 30.5832 28.9507 30.8799 28.6542L32.9196 26.6144L35.3673 29.0621C35.5926 29.2875 35.8879 29.4001 36.1831 29.4001C36.4783 29.4001 36.7737 29.2875 36.999 29.0621L39.4467 26.6144C39.8971 26.1638 39.8971 25.4333 39.4467 24.9826ZM36.1831 26.6144L33.7354 24.1667C33.5101 23.9414 33.2148 23.8288 32.9196 23.8288C32.6244 23.8288 32.3289 23.9414 32.1037 24.1667L30.7202 25.5504L29.1557 18.7712L35.9349 20.3355L34.5513 21.719C34.1007 22.1696 34.1007 22.9003 34.5513 23.3509L36.999 25.7986L36.1831 26.6144Z" fill="white"/>
    <path d="M25.2506 13.2341L24.0967 12.0802C23.6461 11.6297 22.9155 11.6297 22.4649 12.0802C22.0143 12.5308 22.0143 13.2614 22.4649 13.7121L23.6188 14.8659C23.8442 15.0913 24.1395 15.2039 24.4347 15.2039C24.7299 15.2039 25.0253 15.0913 25.2506 14.8659C25.7011 14.4154 25.7011 13.6848 25.2506 13.2341Z" fill="white"/>
    <path d="M23.0009 16.3578H21.3692C20.7319 16.3578 20.2154 16.8744 20.2154 17.5117C20.2154 18.1489 20.7319 18.6655 21.3692 18.6655H23.0009C23.6382 18.6655 24.1547 18.1489 24.1547 17.5117C24.1547 16.8744 23.6382 16.3578 23.0009 16.3578Z" fill="white"/>
    <path d="M25.2505 20.1572C24.8 19.7066 24.0695 19.7066 23.6187 20.1572L22.4649 21.311C22.0143 21.7616 22.0143 22.4922 22.4649 22.9428C22.6903 23.1682 22.9856 23.2808 23.2808 23.2808C23.576 23.2808 23.8714 23.1682 24.0966 22.9428L25.2505 21.789C25.7011 21.3385 25.7011 20.6079 25.2505 20.1572Z" fill="white"/>
    <path d="M33.3275 12.0802C32.8769 11.6297 32.1464 11.6297 31.6957 12.0802L30.5419 13.2341C30.0913 13.6847 30.0913 14.4153 30.5419 14.8659C30.7672 15.0913 31.0625 15.2039 31.3578 15.2039C31.6532 15.2039 31.9485 15.0913 32.1737 14.8659L33.3275 13.7121C33.7781 13.2616 33.7781 12.531 33.3275 12.0802Z" fill="white"/>
    <path d="M27.8963 9.83069C27.2591 9.83069 26.7425 10.3473 26.7425 10.9845V12.6162C26.7425 13.2535 27.2591 13.7701 27.8963 13.7701C28.5336 13.7701 29.0501 13.2535 29.0501 12.6162V10.9845C29.0501 10.3473 28.5336 9.83069 27.8963 9.83069Z" fill="white"/>
    <path d="M13.8231 30.3519C13.8092 30.2781 13.7861 30.2054 13.7573 30.135C13.7285 30.0657 13.6927 29.9988 13.6511 29.9365C13.6097 29.8729 13.5611 29.8141 13.5081 29.761C13.455 29.7079 13.3961 29.6595 13.3326 29.6179C13.2703 29.5765 13.2034 29.5406 13.1331 29.5118C13.0638 29.4829 12.9911 29.4599 12.9173 29.446C12.7685 29.416 12.6161 29.416 12.4673 29.446C12.3935 29.4599 12.3208 29.4829 12.2516 29.5118C12.1811 29.5406 12.1142 29.5763 12.052 29.6179C11.9885 29.6594 11.9297 29.7079 11.8766 29.761C11.8235 29.8141 11.7751 29.8729 11.7335 29.9365C11.692 29.9988 11.6561 30.0657 11.6273 30.135C11.5985 30.2054 11.5754 30.2781 11.5616 30.3519C11.5466 30.4257 11.5385 30.5019 11.5385 30.5769C11.5385 30.6519 11.5466 30.7281 11.5616 30.8019C11.5754 30.8757 11.5985 30.9484 11.6273 31.0176C11.6561 31.0881 11.6919 31.155 11.7335 31.2172C11.775 31.2807 11.8235 31.3395 11.8766 31.3926C11.9297 31.4457 11.9885 31.4941 12.052 31.5357C12.1143 31.5772 12.1813 31.6131 12.2516 31.6419C12.3208 31.6707 12.3935 31.6938 12.4673 31.7088C12.5411 31.7238 12.6173 31.7307 12.6923 31.7307C12.7673 31.7307 12.8435 31.7238 12.9173 31.7088C12.9911 31.6938 13.0638 31.6707 13.1331 31.6419C13.2035 31.6131 13.2704 31.5773 13.3326 31.5357C13.3961 31.4942 13.455 31.4457 13.5081 31.3926C13.5611 31.3395 13.6095 31.2807 13.6511 31.2172C13.6926 31.1549 13.7285 31.0879 13.7573 31.0176C13.7861 30.9484 13.8092 30.8757 13.8231 30.8019C13.8381 30.7281 13.8461 30.6519 13.8461 30.5769C13.8461 30.5019 13.8381 30.4257 13.8231 30.3519Z" fill="white"/>
</svg>
