<svg width="548" height="225" viewBox="0 0 548 225" fill="none" xmlns="http://www.w3.org/2000/svg">
    <path d="M237.78 36.704C235.572 36.8267 233.947 37.072 232.904 37.44C231.923 37.808 231.248 38.5133 230.88 39.556C230.512 40.5987 230.328 42.2853 230.328 44.616V90.248C230.328 92.5787 230.512 94.2653 230.88 95.308C231.248 96.3507 231.923 97.056 232.904 97.424C233.947 97.792 235.572 98.0373 237.78 98.16V100C235.204 99.816 231.279 99.724 226.004 99.724C221.036 99.724 217.141 99.816 214.32 100V98.16C216.528 98.0373 218.123 97.792 219.104 97.424C220.147 97.056 220.852 96.3507 221.22 95.308C221.588 94.2653 221.772 92.5787 221.772 90.248V44.616C221.772 42.2853 221.588 40.5987 221.22 39.556C220.852 38.452 220.147 37.716 219.104 37.348C218.061 36.9187 216.467 36.704 214.32 36.704H199.324C197.177 36.704 195.583 36.9187 194.54 37.348C193.497 37.716 192.792 38.452 192.424 39.556C192.056 40.5987 191.872 42.2853 191.872 44.616V90.248C191.872 92.5787 192.056 94.2653 192.424 95.308C192.792 96.3507 193.467 97.056 194.448 97.424C195.491 97.792 197.116 98.0373 199.324 98.16V100C196.503 99.816 192.608 99.724 187.64 99.724C182.365 99.724 178.44 99.816 175.864 100V98.16C178.072 98.0373 179.667 97.792 180.648 97.424C181.691 97.056 182.396 96.3507 182.764 95.308C183.132 94.2653 183.316 92.5787 183.316 90.248V44.616C183.316 42.2853 183.132 40.5987 182.764 39.556C182.396 38.5133 181.691 37.808 180.648 37.44C179.667 37.072 178.072 36.8267 175.864 36.704V34.864C178.44 35.048 182.365 35.14 187.64 35.14C190.707 35.14 194.693 35.0787 199.6 34.956L206.96 34.864L214.136 34.956C219.043 35.0787 222.999 35.14 226.004 35.14C231.279 35.14 235.204 35.048 237.78 34.864V36.704ZM261.501 73.688V90.248C261.501 92.5787 261.746 94.2653 262.237 95.308C262.728 96.3507 263.586 97.056 264.813 97.424C266.04 97.792 268.033 98.0373 270.793 98.16V100C267.604 99.816 263.096 99.724 257.269 99.724C251.994 99.724 248.069 99.816 245.493 100V98.16C247.701 98.0373 249.296 97.792 250.277 97.424C251.32 97.056 252.025 96.3507 252.393 95.308C252.761 94.2653 252.945 92.5787 252.945 90.248V44.616C252.945 42.2853 252.761 40.5987 252.393 39.556C252.025 38.5133 251.32 37.808 250.277 37.44C249.296 37.072 247.701 36.8267 245.493 36.704V34.864C248.069 35.048 251.81 35.14 256.717 35.14L266.653 35.048C267.818 34.9867 269.137 34.956 270.609 34.956C277.785 34.956 283.274 36.612 287.077 39.924C290.88 43.1747 292.781 47.56 292.781 53.08C292.781 56.4533 292.014 59.704 290.481 62.832C289.009 65.8987 286.464 68.4747 282.845 70.56C279.288 72.6453 274.534 73.688 268.585 73.688H261.501ZM268.309 36.704C266.408 36.704 264.966 36.9187 263.985 37.348C263.065 37.7773 262.421 38.544 262.053 39.648C261.685 40.752 261.501 42.408 261.501 44.616V71.848H267.665C273.676 71.848 277.816 70.2533 280.085 67.064C282.416 63.8133 283.581 59.4893 283.581 54.092C283.581 48.1427 282.385 43.7573 279.993 40.936C277.662 38.1147 273.768 36.704 268.309 36.704ZM329.577 33.576C335.404 33.576 340.495 34.8947 344.849 37.532C349.265 40.1693 352.669 44.0027 355.061 49.032C357.515 54 358.741 59.9493 358.741 66.88C358.741 73.6267 357.484 79.6067 354.969 84.82C352.516 90.0333 349.051 94.0813 344.573 96.964C340.157 99.8467 335.128 101.288 329.485 101.288C323.659 101.288 318.537 99.9693 314.121 97.332C309.767 94.6947 306.363 90.892 303.909 85.924C301.517 80.8947 300.321 74.9147 300.321 67.984C300.321 61.2373 301.548 55.2573 304.001 50.044C306.516 44.8307 309.981 40.7827 314.397 37.9C318.875 35.0173 323.935 33.576 329.577 33.576ZM329.209 35.232C325.284 35.232 321.819 36.612 318.813 39.372C315.869 42.0707 313.569 45.8733 311.913 50.78C310.319 55.6867 309.521 61.2987 309.521 67.616C309.521 73.9947 310.411 79.6067 312.189 84.452C314.029 89.2973 316.483 93.0387 319.549 95.676C322.616 98.3133 326.051 99.632 329.853 99.632C333.779 99.632 337.213 98.2827 340.157 95.584C343.163 92.824 345.463 88.9907 347.057 84.084C348.713 79.1773 349.541 73.5653 349.541 67.248C349.541 60.8693 348.621 55.2573 346.781 50.412C345.003 45.5667 342.58 41.8253 339.513 39.188C336.447 36.5507 333.012 35.232 329.209 35.232ZM416.343 98.16C415.913 102.208 415.699 105.827 415.699 109.016C415.699 111.469 415.791 113.371 415.975 114.72H413.859C413.429 110.733 412.877 107.728 412.203 105.704C411.528 103.741 410.363 102.3 408.707 101.38C407.112 100.46 404.72 100 401.531 100H375.311C372.121 100 369.699 100.46 368.043 101.38C366.448 102.3 365.313 103.741 364.639 105.704C363.964 107.728 363.412 110.733 362.983 114.72H360.867C361.051 113.371 361.143 111.469 361.143 109.016C361.143 105.827 360.928 102.208 360.499 98.16H362.155C366.509 98.16 369.852 95.6147 372.183 90.524C374.513 85.372 376.108 79.3307 376.967 72.4C377.825 65.408 378.592 56.1467 379.267 44.616C379.389 42.408 379.267 40.7827 378.899 39.74C378.592 38.636 377.917 37.9 376.875 37.532C375.832 37.1027 374.145 36.8267 371.815 36.704V34.864C374.391 35.048 377.549 35.14 381.291 35.14C382.211 35.14 383.591 35.0787 385.431 34.956L389.387 34.864L395.551 34.956C398.372 35.0787 400.703 35.14 402.543 35.14C407.265 35.14 410.915 35.048 413.491 34.864V36.704C411.283 36.8267 409.657 37.072 408.615 37.44C407.633 37.808 406.959 38.5133 406.591 39.556C406.223 40.5987 406.039 42.2853 406.039 44.616V90.248C406.039 92.5787 406.223 94.296 406.591 95.4C406.959 96.4427 407.664 97.1787 408.707 97.608C409.749 97.976 411.344 98.16 413.491 98.16H416.343ZM397.483 44.616C397.483 42.2853 397.299 40.5987 396.931 39.556C396.563 38.452 395.857 37.716 394.815 37.348C393.772 36.9187 392.177 36.704 390.031 36.704H388.835C386.627 36.704 385.032 36.9187 384.051 37.348C383.131 37.716 382.517 38.4213 382.211 39.464C381.904 40.4453 381.628 42.1627 381.383 44.616L380.647 53.632C380.095 61.6053 379.481 68.26 378.807 73.596C378.132 78.8707 376.967 83.808 375.311 88.408C373.655 93.008 371.324 96.2587 368.319 98.16H390.031C392.177 98.16 393.772 97.976 394.815 97.608C395.857 97.1787 396.563 96.4427 396.931 95.4C397.299 94.296 397.483 92.5787 397.483 90.248V44.616ZM470.246 92.272C471.718 96.0747 473.834 98.0373 476.594 98.16V100C474.141 99.816 470.859 99.724 466.75 99.724C461.475 99.724 457.55 99.816 454.974 100V98.16C457.305 98.0373 458.961 97.7613 459.942 97.332C460.985 96.8413 461.506 95.9827 461.506 94.756C461.506 93.7133 461.138 92.272 460.402 90.432L454.79 75.344H432.526L428.754 85.096C427.527 88.408 426.914 90.9227 426.914 92.64C426.914 94.5413 427.558 95.9213 428.846 96.78C430.195 97.6387 432.219 98.0987 434.918 98.16V100C431.422 99.816 427.895 99.724 424.338 99.724C421.578 99.724 419.278 99.816 417.438 100V98.16C420.505 97.424 422.927 94.756 424.706 90.156L446.326 34.404H447.798L470.246 92.272ZM454.054 73.504L443.75 45.996L433.262 73.504H454.054ZM543.651 36.704C541.443 36.8267 539.818 37.072 538.775 37.44C537.794 37.808 537.119 38.5133 536.751 39.556C536.383 40.5987 536.199 42.2853 536.199 44.616V90.248C536.199 92.5787 536.383 94.2653 536.751 95.308C537.119 96.3507 537.794 97.056 538.775 97.424C539.818 97.792 541.443 98.0373 543.651 98.16V100C541.075 99.816 537.15 99.724 531.875 99.724C526.969 99.724 523.074 99.816 520.191 100V98.16C522.399 98.0373 523.994 97.792 524.975 97.424C526.018 97.056 526.723 96.3507 527.091 95.308C527.459 94.2653 527.643 92.5787 527.643 90.248V46.732L495.903 91.72C495.965 93.4987 496.21 94.848 496.639 95.768C497.069 96.6267 497.774 97.2093 498.755 97.516C499.737 97.8227 501.27 98.0373 503.355 98.16V100C500.534 99.816 496.639 99.724 491.671 99.724C486.397 99.724 482.471 99.816 479.895 100V98.16C482.103 98.0373 483.698 97.792 484.679 97.424C485.722 97.056 486.427 96.3507 486.795 95.308C487.163 94.2653 487.347 92.5787 487.347 90.248V44.616C487.347 42.2853 487.163 40.5987 486.795 39.556C486.427 38.5133 485.722 37.808 484.679 37.44C483.698 37.072 482.103 36.8267 479.895 36.704V34.864C482.471 35.048 486.397 35.14 491.671 35.14C496.578 35.14 500.473 35.048 503.355 34.864V36.704C501.147 36.8267 499.522 37.072 498.479 37.44C497.498 37.808 496.823 38.5133 496.455 39.556C496.087 40.5987 495.903 42.2853 495.903 44.616V88.132L527.643 43.144C527.582 41.3653 527.337 40.0467 526.907 39.188C526.478 38.268 525.773 37.6547 524.791 37.348C523.81 37.0413 522.277 36.8267 520.191 36.704V34.864C523.074 35.048 526.969 35.14 531.875 35.14C537.15 35.14 541.075 35.048 543.651 34.864V36.704ZM525.711 13.244C527.183 13.244 528.349 13.704 529.207 14.624C530.127 15.544 530.587 16.7707 530.587 18.304C530.587 19.592 530.219 20.7267 529.483 21.708C528.809 22.6893 527.705 23.64 526.171 24.56C522.307 26.8907 517.523 28.056 511.819 28.056C506.115 28.056 501.331 26.8907 497.467 24.56C495.934 23.64 494.799 22.6893 494.063 21.708C493.389 20.7267 493.051 19.592 493.051 18.304C493.051 16.7707 493.481 15.544 494.339 14.624C495.259 13.704 496.455 13.244 497.927 13.244C499.399 13.244 500.595 13.704 501.515 14.624C502.497 15.4827 502.987 16.6787 502.987 18.212C502.987 19.5 502.619 20.5427 501.883 21.34C501.209 22.1373 500.289 22.6587 499.123 22.904C500.411 24.1307 502.251 24.9893 504.643 25.48C507.035 25.9707 509.427 26.216 511.819 26.216C514.211 26.216 516.603 25.9707 518.995 25.48C521.387 24.9893 523.227 24.1307 524.515 22.904C523.35 22.6587 522.399 22.1373 521.663 21.34C520.989 20.5427 520.651 19.5 520.651 18.212C520.651 16.6787 521.142 15.4827 522.123 14.624C523.105 13.704 524.301 13.244 525.711 13.244Z" fill="white"/>
    <path d="M230.052 138.704C227.844 138.827 226.219 139.072 225.176 139.44C224.195 139.808 223.52 140.513 223.152 141.556C222.784 142.599 222.6 144.285 222.6 146.616V192.248C222.6 194.579 222.784 196.265 223.152 197.308C223.52 198.351 224.195 199.056 225.176 199.424C226.219 199.792 227.844 200.037 230.052 200.16V202C227.476 201.816 223.551 201.724 218.276 201.724C212.511 201.724 208.003 201.816 204.752 202V200.16C207.512 200.037 209.505 199.792 210.732 199.424C211.959 199.056 212.817 198.351 213.308 197.308C213.799 196.265 214.044 194.579 214.044 192.248V172.652C212.143 173.572 209.536 174.369 206.224 175.044C202.973 175.719 199.815 176.056 196.748 176.056C191.78 176.056 187.855 174.983 184.972 172.836C183.316 171.548 182.151 170.015 181.476 168.236C180.863 166.396 180.556 163.82 180.556 160.508V145.42C180.556 142.905 180.035 141.188 178.992 140.268C177.949 139.287 176.14 138.796 173.564 138.796V136.864C179.207 137.109 182.979 137.232 184.88 137.232C186.597 137.232 190.032 137.109 195.184 136.864V138.796C192.915 138.796 191.32 139.287 190.4 140.268C189.541 141.188 189.112 142.905 189.112 145.42V162.532C189.112 164.801 189.357 166.672 189.848 168.144C190.339 169.616 191.351 170.812 192.884 171.732C194.417 172.652 196.687 173.112 199.692 173.112C205.519 173.112 210.303 172.437 214.044 171.088V146.616C214.044 144.285 213.86 142.599 213.492 141.556C213.124 140.513 212.419 139.808 211.376 139.44C210.395 139.072 208.8 138.827 206.592 138.704V136.864C209.168 137.048 213.093 137.14 218.368 137.14C223.336 137.14 227.231 137.048 230.052 136.864V138.704ZM286.066 194.272C287.538 198.075 289.654 200.037 292.414 200.16V202C289.961 201.816 286.68 201.724 282.57 201.724C277.296 201.724 273.37 201.816 270.794 202V200.16C273.125 200.037 274.781 199.761 275.762 199.332C276.805 198.841 277.326 197.983 277.326 196.756C277.326 195.713 276.958 194.272 276.222 192.432L270.61 177.344H248.346L244.574 187.096C243.348 190.408 242.734 192.923 242.734 194.64C242.734 196.541 243.378 197.921 244.666 198.78C246.016 199.639 248.04 200.099 250.738 200.16V202C247.242 201.816 243.716 201.724 240.158 201.724C237.398 201.724 235.098 201.816 233.258 202V200.16C236.325 199.424 238.748 196.756 240.526 192.156L262.146 136.404H263.618L286.066 194.272ZM269.874 175.504L259.57 147.996L249.082 175.504H269.874ZM324.726 135.576C328.406 135.576 331.534 136.097 334.11 137.14C336.686 138.183 339.2 139.655 341.654 141.556C342.328 142.108 342.911 142.384 343.402 142.384C344.628 142.384 345.426 140.544 345.794 136.864H347.91C347.664 140.851 347.542 147.904 347.542 158.024H345.426C344.751 154.037 344.138 151.185 343.586 149.468C343.034 147.689 342.114 146.003 340.826 144.408C338.986 142.016 336.624 140.237 333.742 139.072C330.92 137.845 327.854 137.232 324.542 137.232C320.555 137.232 317.059 138.551 314.054 141.188C311.11 143.825 308.81 147.597 307.154 152.504C305.498 157.349 304.67 163.053 304.67 169.616C304.67 176.301 305.559 182.036 307.338 186.82C309.116 191.604 311.57 195.253 314.698 197.768C317.887 200.221 321.475 201.448 325.462 201.448C328.528 201.448 331.503 200.865 334.386 199.7C337.268 198.535 339.538 196.787 341.194 194.456C342.42 192.739 343.31 190.899 343.862 188.936C344.414 186.973 344.935 183.968 345.426 179.92H347.542C347.542 190.469 347.664 197.829 347.91 202H345.794C345.61 200.037 345.334 198.657 344.966 197.86C344.659 197.001 344.199 196.572 343.586 196.572C343.095 196.572 342.451 196.817 341.654 197.308C338.894 199.271 336.256 200.773 333.742 201.816C331.227 202.797 328.191 203.288 324.634 203.288C318.807 203.288 313.686 201.969 309.27 199.332C304.915 196.695 301.511 192.892 299.058 187.924C296.666 182.895 295.47 176.915 295.47 169.984C295.47 163.237 296.696 157.257 299.15 152.044C301.664 146.831 305.13 142.783 309.546 139.9C314.023 137.017 319.083 135.576 324.726 135.576ZM382.27 163.268C389.446 163.268 394.935 164.955 398.738 168.328C402.54 171.701 404.442 176.148 404.442 181.668C404.442 185.041 403.675 188.261 402.142 191.328C400.67 194.395 398.124 196.94 394.506 198.964C390.948 200.988 386.195 202 380.246 202L375.922 201.908C373.346 201.785 371.23 201.724 369.574 201.724C364.299 201.724 360.374 201.816 357.798 202V200.16C360.006 200.037 361.6 199.792 362.582 199.424C363.624 199.056 364.33 198.351 364.698 197.308C365.066 196.265 365.25 194.579 365.25 192.248V146.616C365.25 144.285 365.066 142.599 364.698 141.556C364.33 140.513 363.624 139.808 362.582 139.44C361.6 139.072 360.006 138.827 357.798 138.704V136.864C360.374 137.048 364.299 137.14 369.574 137.14C375.4 137.14 379.908 137.048 383.098 136.864V138.704C380.338 138.827 378.344 139.072 377.118 139.44C375.891 139.808 375.032 140.513 374.542 141.556C374.051 142.599 373.806 144.285 373.806 146.616V163.452L382.27 163.268ZM431.858 138.704C429.65 138.827 428.024 139.072 426.982 139.44C426 139.808 425.326 140.513 424.958 141.556C424.59 142.599 424.406 144.285 424.406 146.616V192.248C424.406 194.579 424.59 196.265 424.958 197.308C425.326 198.351 426 199.056 426.982 199.424C428.024 199.792 429.65 200.037 431.858 200.16V202C429.036 201.816 425.142 201.724 420.174 201.724C414.899 201.724 410.974 201.816 408.398 202V200.16C410.606 200.037 412.2 199.792 413.182 199.424C414.224 199.056 414.93 198.351 415.298 197.308C415.666 196.265 415.85 194.579 415.85 192.248V146.616C415.85 144.285 415.666 142.599 415.298 141.556C414.93 140.513 414.224 139.808 413.182 139.44C412.2 139.072 410.606 138.827 408.398 138.704V136.864C410.974 137.048 414.899 137.14 420.174 137.14C425.08 137.14 428.975 137.048 431.858 136.864V138.704ZM380.246 200.16C385.95 200.16 389.875 198.596 392.022 195.468C394.168 192.34 395.242 188.077 395.242 182.68C395.242 176.731 394.046 172.315 391.654 169.432C389.323 166.488 385.428 165.016 379.97 165.016C377.21 165.016 375.155 165.047 373.806 165.108V192.248C373.806 194.579 373.959 196.296 374.266 197.4C374.572 198.443 375.155 199.179 376.014 199.608C376.872 199.976 378.283 200.16 380.246 200.16Z" fill="#F3C28B"/>
    <path d="M80.0002 74.088C66.449 74.088 53.7602 80.1159 45.1878 90.6265C44.339 91.6673 44.4946 93.1989 45.5354 94.0477C46.5755 94.8965 48.1078 94.7409 48.9566 93.7001C56.0862 84.9588 66.4081 79.696 77.5685 79.0262V85.3712C77.5685 86.7141 78.6572 87.8029 80.0002 87.8029C81.3434 87.8029 82.4318 86.7141 82.4318 85.3712V79.0271C102.582 80.2401 118.759 96.4181 119.972 116.568H113.629C112.286 116.568 111.197 117.657 111.197 119C111.197 120.343 112.286 121.431 113.629 121.431H119.972C118.758 141.581 102.581 157.758 82.4315 158.971V152.628C82.4315 151.286 81.3431 150.197 79.9998 150.197C78.6569 150.197 77.5682 151.286 77.5682 152.628V158.971C57.4188 157.758 41.2414 141.581 40.0278 121.431H46.3709C47.7138 121.431 48.8026 120.343 48.8026 119C48.8026 117.657 47.7138 116.568 46.3709 116.568H40.0246C40.3394 111.225 41.6946 106.099 44.0676 101.298C44.6626 100.094 44.1691 98.6354 42.9653 98.0402C41.7608 97.4449 40.3028 97.9387 39.7078 99.1425C36.6429 105.343 35.0886 112.024 35.0886 118.999C35.0886 143.76 55.2312 163.906 79.9914 163.91C79.9943 163.91 79.9969 163.91 79.9998 163.91C80.0028 163.91 80.0054 163.91 80.0083 163.91C104.768 163.906 124.911 143.76 124.911 118.999C124.911 94.2348 104.764 74.088 80.0002 74.088Z" fill="#F3C28B"/>
    <path d="M137.361 119C137.361 105.462 132.644 93.0063 124.77 83.1843C124.119 79.7054 120.486 61.5584 112.39 43.685C110.275 39.0166 105.587 36 100.447 36H59.5526C54.4123 36 49.7247 39.0166 47.6102 43.6847C39.5143 61.5581 35.8805 79.7048 35.2297 83.1843C27.3563 93.0063 22.6389 105.462 22.6389 119C22.6389 132.537 27.356 144.992 35.2288 154.814C35.8782 158.286 39.5121 176.436 47.6098 194.314C49.7241 198.983 54.4114 202 59.5516 202H100.449C105.589 202 110.276 198.983 112.391 194.314C113.357 192.181 114.313 189.919 115.232 187.593C115.725 186.344 115.113 184.932 113.864 184.438C112.616 183.945 111.202 184.557 110.709 185.806C109.819 188.059 108.894 190.246 107.961 192.307C106.632 195.241 103.684 197.136 100.449 197.136H59.5516C56.3168 197.136 53.3683 195.241 52.04 192.307C46.894 180.946 43.5635 169.242 41.7194 161.679C51.8802 170.802 65.3023 176.361 80.0003 176.361C94.7005 176.361 108.125 170.8 118.286 161.674C117.282 165.799 115.838 171.149 113.898 176.991C113.475 178.266 114.165 179.642 115.44 180.065C115.694 180.15 115.953 180.19 116.206 180.19C117.226 180.19 118.175 179.544 118.514 178.523C122.409 166.791 124.321 157.212 124.771 154.814C132.644 144.993 137.361 132.538 137.361 119ZM52.04 45.6913C53.3683 42.7584 56.3175 40.8633 59.5526 40.8633H100.447C103.682 40.8633 106.631 42.7584 107.96 45.6913C113.105 57.0521 116.436 68.7565 118.28 76.3199C108.119 67.1976 94.6972 61.6388 79.9996 61.6388C65.3013 61.6388 51.8785 67.1979 41.7178 76.3215C43.5603 68.7626 46.8888 57.064 52.04 45.6913ZM79.9999 171.498C51.0524 171.498 27.5022 147.947 27.5022 119C27.5022 90.053 51.0528 66.5025 79.9999 66.5025C108.947 66.5025 132.498 90.053 132.498 119C132.498 147.947 108.947 171.498 79.9999 171.498Z" fill="white"/>
    <path d="M79.9998 116.129C76.4727 116.129 73.6032 113.645 73.6032 110.592C73.6032 107.539 76.4727 105.056 79.9998 105.056C83.527 105.056 86.3965 107.539 86.3965 110.592C86.3965 112.198 87.6985 113.5 89.304 113.5C90.9096 113.5 92.2116 112.198 92.2116 110.592C92.2116 105.264 88.2416 100.784 82.9074 99.5683V98.0561C82.9074 96.4505 81.6054 95.1485 79.9998 95.1485C78.3943 95.1485 77.0923 96.4505 77.0923 98.0561V99.5683C71.7581 100.784 67.7881 105.264 67.7881 110.592C67.7881 116.851 73.2662 121.944 79.9998 121.944C83.527 121.944 86.3965 124.427 86.3965 127.48C86.3965 130.533 83.527 133.017 79.9998 133.017C76.4727 133.017 73.6032 130.533 73.6032 127.48C73.6032 125.875 72.3012 124.573 70.6956 124.573C69.0901 124.573 67.7881 125.875 67.7881 127.48C67.7881 132.808 71.7581 137.288 77.0923 138.504V139.76C77.0923 141.366 78.3943 142.668 79.9998 142.668C81.6054 142.668 82.9074 141.366 82.9074 139.76V138.504C88.2416 137.288 92.2116 132.808 92.2116 127.48C92.2116 121.221 86.7335 116.129 79.9998 116.129Z" fill="white"/>
</svg>
