<svg width="22" height="22" viewBox="0 0 22 22" fill="none" xmlns="http://www.w3.org/2000/svg">
    <g clip-path="url(#clip0)">
        <path d="M11 22C17.0751 22 22 17.0751 22 11C22 4.92487 17.0751 0 11 0C4.92487 0 0 4.92487 0 11C0 17.0751 4.92487 22 11 22Z" fill="#5F98D1"/>
        <path d="M17.867 6.33643H4.10602L9.09121 11.5273L10.5298 12.9839C9.74709 12.805 9.69866 12.6935 9.35182 12.4104C9.16989 12.2618 8.81841 11.8581 8.28456 11.3129C6.61819 9.61133 3.79059 6.72392 3.79059 6.72392V15.267L4.14573 15.6222L4.10598 15.6636L10.4277 21.9853C10.6172 21.995 10.808 22 11 22C17.0752 22 22 17.0751 22 11C22 10.8176 21.9953 10.6362 21.9866 10.456L17.867 6.33643Z" fill="#3A6DA1"/>
        <path d="M3.79059 6.72363V15.2668L7.95675 10.9779L3.79059 6.72363Z" fill="white"/>
        <path d="M18.2094 6.72363V15.2668L14.064 10.9952L18.2094 6.72363Z" fill="white"/>
        <path d="M4.10602 6.33643H17.867L12.4587 11.9678C12.0738 12.3686 11.5421 12.5951 10.9865 12.5951C10.4309 12.5951 9.89924 12.3686 9.51432 11.9678L4.10602 6.33643Z" fill="white"/>
        <path d="M12.7707 12.2677C12.3067 12.7508 11.6564 13.0279 10.9865 13.0279C10.3167 13.0279 9.66635 12.7509 9.20237 12.2677L8.28503 11.3125L4.10602 15.6638H17.867L13.688 11.3125L12.7707 12.2677Z" fill="white"/>
    </g>
    <defs>
        <clipPath id="clip0">
            <rect width="22" height="22" fill="white"/>
        </clipPath>
    </defs>
</svg>
