<svg width="60" height="60" viewBox="0 0 60 60" fill="none" xmlns="http://www.w3.org/2000/svg">
    <path d="M41.6102 26.1201C40.5591 26.1201 39.5315 26.4744 38.7047 27.1122C37.9016 26.4981 36.8976 26.1201 35.811 26.1201C33.1417 26.1201 30.9685 28.2933 30.9685 30.9626C30.9685 33.6319 33.1417 35.8052 35.811 35.8052C36.9095 35.8052 37.9016 35.4272 38.7165 34.813C39.5551 35.4508 40.5709 35.8052 41.622 35.8052C44.2913 35.8052 46.4646 33.6319 46.4646 30.9626C46.4528 28.2933 44.2795 26.1201 41.6102 26.1201ZM35.811 33.8681C34.2047 33.8681 32.9055 32.5689 32.9055 30.9626C32.9055 29.3563 34.2047 28.0571 35.811 28.0571C37.4173 28.0571 38.7165 29.3563 38.7165 30.9626C38.7047 32.5571 37.4055 33.8681 35.811 33.8681ZM41.6102 33.8681C41.0197 33.8681 40.4646 33.691 39.9921 33.3603C40.4173 32.628 40.6417 31.8012 40.6417 30.9626C40.6417 30.1241 40.4173 29.2973 39.9921 28.565C40.4646 28.2343 41.0197 28.0571 41.6102 28.0571C43.2165 28.0571 44.5157 29.3563 44.5157 30.9626C44.5157 32.5571 43.2165 33.8681 41.6102 33.8681Z" fill="white"/>
    <path d="M11.6221 45.4785H5.81104V47.4155H11.6221V45.4785Z" fill="white"/>
    <path d="M22.2638 45.4785H16.4528V47.4155H22.2638V45.4785Z" fill="white"/>
    <path d="M32.9055 45.4785H27.0945V47.4155H32.9055V45.4785Z" fill="white"/>
    <path d="M43.5472 45.4785H37.7362V47.4155H43.5472V45.4785Z" fill="white"/>
    <path d="M17.4213 29.9941H5.81104V31.9312H17.4213V29.9941Z" fill="white"/>
    <path d="M30.9685 37.73H5.81104V39.667H30.9685V37.73Z" fill="white"/>
    <path d="M55.1575 5.80518H12.5787C9.90945 5.80518 7.73622 7.9784 7.73622 10.6477V21.2894H4.84252C2.17323 21.2894 0 23.4627 0 26.1319V49.3524C0 52.0217 2.17323 54.1949 4.84252 54.1949H47.4213C50.0906 54.1949 52.2638 52.0217 52.2638 49.3524V38.7107H55.1575C57.8268 38.7107 60 36.5375 60 33.8682V10.6359C60 7.96659 57.8268 5.80518 55.1575 5.80518ZM50.3268 49.3524C50.3268 50.9587 49.0276 52.2579 47.4213 52.2579H4.84252C3.23622 52.2579 1.93701 50.9587 1.93701 49.3524V26.1201C1.93701 24.5138 3.23622 23.2146 4.84252 23.2146H47.4213C49.0276 23.2146 50.3268 24.5138 50.3268 26.1201V49.3524ZM58.063 33.8682C58.063 35.4745 56.7638 36.7737 55.1575 36.7737H52.252V26.1319C52.252 23.4627 50.0787 21.2894 47.4095 21.2894H9.67323V17.4154H58.063V33.8682ZM58.063 15.4784H9.67323V13.5414H58.063V15.4784ZM58.063 11.6044H9.67323V10.6359C9.67323 9.02959 10.9724 7.73037 12.5787 7.73037H55.1575C56.7638 7.73037 58.063 9.02959 58.063 10.6359V11.6044Z" fill="white"/>
</svg>
