<svg width="60" height="60" viewBox="0 0 60 60" fill="none" xmlns="http://www.w3.org/2000/svg">
    <path d="M59.9158 33.3917C59.9156 33.3914 59.9156 33.3913 59.9155 33.391L48.5873 4.94681C48.3468 4.34244 47.6618 4.0474 47.0574 4.28782C47.057 4.28797 47.0565 4.28812 47.0561 4.28841L1.0989 22.5881C0.911482 22.6691 0.748944 22.7983 0.627776 22.9626C0.245575 23.1613 0.00412236 23.5543 0 23.985V54.6081C0 55.2586 0.527367 55.7859 1.17782 55.7859H50.6461C51.2965 55.7859 51.8239 55.2586 51.8239 54.6081V37.8832L59.2583 34.9222C59.8625 34.6811 60.1568 33.996 59.9158 33.3917ZM49.4683 53.4303H2.35563V25.1628H49.4683V53.4303ZM19.6519 22.8131L39.3732 14.9547C41.1333 16.8047 43.5721 17.8562 46.1256 17.8662L48.0926 22.8131H19.6519ZM51.8239 35.3532V23.985C51.8239 23.3345 51.2965 22.8072 50.6461 22.8072H50.6272L48.1315 16.5388C48.1038 16.4866 48.0715 16.4368 48.0349 16.3904C47.9085 15.8232 47.3832 15.4361 46.804 15.4835C44.4281 15.7001 42.1038 14.6993 40.6288 12.824C40.2617 12.371 39.6166 12.2584 39.1176 12.5602C39.0617 12.5668 39.0062 12.5771 38.9515 12.5908L14.8746 22.1782C14.5833 22.2925 14.3502 22.519 14.228 22.8072H6.91614L46.8347 6.91258L57.2925 33.1719L51.8239 35.3532Z" fill="white"/>
    <path d="M5.55043 45.4696C7.83716 46.1455 9.62656 47.9326 10.3053 50.2184C10.4541 50.7173 10.913 51.0591 11.4336 51.0593C11.4947 51.0555 11.5554 51.0463 11.615 51.0322C11.6679 51.0472 11.7219 51.0583 11.7764 51.0652H40.0439C40.0925 51.0588 40.1405 51.049 40.1876 51.0357C40.7761 51.1788 41.3691 50.818 41.5124 50.2295C41.5128 50.2273 41.5134 50.2253 41.5139 50.2231C42.1908 47.935 43.9805 46.1453 46.2687 45.4684C46.8236 45.2988 47.1684 44.7458 47.0767 44.1729C47.0924 44.1157 47.1038 44.0574 47.1108 43.9985V34.5764C47.1039 34.5174 47.0921 34.4591 47.0755 34.4021C47.1678 33.8289 46.8229 33.2757 46.2675 33.1065C43.9793 32.4298 42.1901 30.6394 41.515 28.3507C41.3446 27.792 40.7861 27.4463 40.21 27.5427C40.1555 27.5276 40.1 27.5165 40.0439 27.5098H11.7764C11.717 27.5168 11.6583 27.5286 11.6009 27.5451C11.028 27.4538 10.4753 27.7985 10.3053 28.353C9.62788 30.6407 7.83834 32.4298 5.55043 33.1065C4.99553 33.2761 4.65073 33.8291 4.74245 34.4021C4.72714 34.4593 4.7161 34.5175 4.70947 34.5764V43.9985C4.71625 44.0539 4.72729 44.1087 4.74245 44.1623C4.64587 44.7389 4.99141 45.2981 5.55043 45.4696ZM7.0651 35.0546C9.43016 34.1047 11.3047 32.2303 12.2546 29.8653H39.5646C40.5149 32.2303 42.3899 34.1047 44.7552 35.0546V43.5204C42.3909 44.4713 40.5167 46.3454 39.5658 48.7096H12.2546C11.3036 46.3454 9.42942 44.4713 7.0651 43.5204V35.0546Z" fill="white"/>
    <path d="M25.9121 46.3594C29.8151 46.3594 32.979 43.1957 32.979 39.293C32.979 35.3903 29.8151 32.2266 25.9121 32.2266C22.0091 32.2266 18.8452 35.3903 18.8452 39.293C18.849 43.1941 22.0107 46.3556 25.9121 46.3594ZM25.9121 34.582C28.5141 34.582 30.6234 36.6912 30.6234 39.293C30.6234 41.8948 28.5141 44.004 25.9121 44.004C23.3102 44.004 21.2008 41.8948 21.2008 39.293C21.2008 36.6912 23.3102 34.582 25.9121 34.582Z" fill="white"/>
    <path d="M12.9545 41.0627C13.9301 41.0627 14.7212 40.2717 14.7212 39.296C14.7212 38.3203 13.9301 37.5293 12.9545 37.5293C11.9788 37.5293 11.1877 38.3203 11.1877 39.296C11.1877 40.2718 11.9788 41.0627 12.9545 41.0627ZM12.9545 38.7071C13.2797 38.7071 13.5434 38.9708 13.5434 39.296C13.5434 39.6212 13.2797 39.8849 12.9545 39.8849C12.6292 39.8849 12.3656 39.6212 12.3656 39.296C12.3656 38.9708 12.6292 38.7071 12.9545 38.7071Z" fill="white"/>
    <path d="M38.8676 41.0627C39.8432 41.0627 40.6343 40.2717 40.6343 39.296C40.6343 38.3203 39.8432 37.5293 38.8676 37.5293C37.8919 37.5293 37.1008 38.3203 37.1008 39.296C37.1008 40.2718 37.8919 41.0627 38.8676 41.0627ZM38.8676 38.7071C39.1928 38.7071 39.4565 38.9708 39.4565 39.296C39.4565 39.6212 39.1928 39.8849 38.8676 39.8849C38.5423 39.8849 38.2786 39.6212 38.2786 39.296C38.2786 38.9708 38.5423 38.7071 38.8676 38.7071Z" fill="white"/>
</svg>
