<svg width="60" height="60" viewBox="0 0 60 60" fill="none" xmlns="http://www.w3.org/2000/svg">
    <path d="M53.6538 2.88452H6.34617C2.84684 2.88452 0 5.73147 0 9.23069V35.1922V39.2307C0 42.7299 2.84684 45.5769 6.34617 45.5769H21.6695L19.8233 54.8076H13.8462C13.2089 54.8076 12.6923 55.3242 12.6923 55.9614C12.6923 56.5987 13.2089 57.1153 13.8462 57.1153H46.1538C46.7911 57.1153 47.3077 56.5987 47.3077 55.9614C47.3077 55.3242 46.7911 54.8076 46.1538 54.8076H40.1767L38.3305 45.5769H53.6538C57.153 45.5769 60 42.73 60 39.2307V35.1922V9.23069C60 5.73147 57.1532 2.88452 53.6538 2.88452ZM22.1767 54.8076L24.0229 45.5769H35.9771L37.8233 54.8076H22.1767ZM57.6923 39.2307C57.6923 41.4575 55.8807 43.2692 53.6538 43.2692H6.34617C4.11937 43.2692 2.30766 41.4576 2.30766 39.2307V36.3461H57.6922V39.2307H57.6923ZM57.6923 34.0385H2.30766V31.7308H9.23074C9.86801 31.7308 10.3846 31.2142 10.3846 30.577C10.3846 29.9397 9.86801 29.4232 9.23074 29.4232H2.30766V9.23069C2.30766 7.0039 4.11926 5.19218 6.34617 5.19218H53.6538C55.8806 5.19218 57.6923 7.00378 57.6923 9.23069V34.0385Z" fill="white"/>
    <path d="M30 37.5C28.7275 37.5 27.6923 38.5352 27.6923 39.8077C27.6923 41.0801 28.7275 42.1153 30 42.1153C31.2724 42.1153 32.3076 41.0801 32.3076 39.8077C32.3076 38.5352 31.2724 37.5 30 37.5Z" fill="white"/>
    <path d="M39.4467 24.9827L36.999 22.535L39.0387 20.4953C39.3353 20.1987 39.4476 19.7645 39.3319 19.3613C39.2163 18.9582 38.891 18.6495 38.4822 18.555L27.8756 16.1073C27.488 16.0182 27.0816 16.1344 26.8001 16.4158C26.5189 16.6971 26.4023 17.1034 26.4917 17.4912L28.9396 28.0977C29.034 28.5064 29.3426 28.8318 29.7459 28.9475C30.1492 29.063 30.5832 28.9507 30.8799 28.6543L32.9196 26.6145L35.3673 29.0622C35.5926 29.2875 35.8879 29.4002 36.1831 29.4002C36.4783 29.4002 36.7737 29.2875 36.999 29.0622L39.4467 26.6145C39.8971 26.1639 39.8971 25.4334 39.4467 24.9827ZM36.1831 26.6145L33.7354 24.1668C33.5101 23.9414 33.2148 23.8288 32.9196 23.8288C32.6244 23.8288 32.3289 23.9414 32.1037 24.1668L30.7202 25.5504L29.1557 18.7712L35.9349 20.3356L34.5513 21.7191C34.1007 22.1697 34.1007 22.9003 34.5513 23.3509L36.999 25.7986L36.1831 26.6145Z" fill="white"/>
    <path d="M25.2506 13.234L24.0967 12.0801C23.6461 11.6295 22.9155 11.6295 22.4649 12.0801C22.0143 12.5307 22.0143 13.2613 22.4649 13.712L23.6188 14.8658C23.8442 15.0911 24.1395 15.2038 24.4347 15.2038C24.7299 15.2038 25.0253 15.0911 25.2506 14.8658C25.7011 14.4153 25.7011 13.6847 25.2506 13.234Z" fill="white"/>
    <path d="M23.0009 16.3579H21.3692C20.7319 16.3579 20.2154 16.8745 20.2154 17.5117C20.2154 18.149 20.7319 18.6656 21.3692 18.6656H23.0009C23.6382 18.6656 24.1547 18.149 24.1547 17.5117C24.1547 16.8745 23.6382 16.3579 23.0009 16.3579Z" fill="white"/>
    <path d="M25.2505 20.1573C24.8 19.7067 24.0695 19.7067 23.6187 20.1573L22.4649 21.3111C22.0143 21.7617 22.0143 22.4923 22.4649 22.9429C22.6903 23.1683 22.9856 23.2809 23.2808 23.2809C23.576 23.2809 23.8714 23.1683 24.0966 22.9429L25.2505 21.7891C25.7011 21.3386 25.7011 20.608 25.2505 20.1573Z" fill="white"/>
    <path d="M33.3275 12.0801C32.8769 11.6295 32.1464 11.6295 31.6957 12.0801L30.5419 13.234C30.0913 13.6845 30.0913 14.4152 30.5419 14.8658C30.7672 15.0911 31.0625 15.2038 31.3578 15.2038C31.6532 15.2038 31.9485 15.0911 32.1737 14.8658L33.3275 13.712C33.7781 13.2615 33.7781 12.5308 33.3275 12.0801Z" fill="white"/>
    <path d="M27.8963 9.83057C27.2591 9.83057 26.7425 10.3471 26.7425 10.9844V12.6161C26.7425 13.2534 27.2591 13.7699 27.8963 13.7699C28.5336 13.7699 29.0501 13.2534 29.0501 12.6161V10.9844C29.0501 10.3471 28.5336 9.83057 27.8963 9.83057Z" fill="white"/>
    <path d="M13.8231 30.3519C13.8092 30.2781 13.7861 30.2055 13.7573 30.135C13.7285 30.0658 13.6927 29.9989 13.6511 29.9365C13.6097 29.873 13.5611 29.8142 13.5081 29.7611C13.455 29.708 13.3961 29.6596 13.3326 29.618C13.2703 29.5765 13.2034 29.5407 13.1331 29.5118C13.0638 29.483 12.9911 29.4599 12.9173 29.4461C12.7685 29.4161 12.6161 29.4161 12.4673 29.4461C12.3935 29.4599 12.3208 29.483 12.2516 29.5118C12.1811 29.5407 12.1142 29.5764 12.052 29.618C11.9885 29.6595 11.9297 29.708 11.8766 29.7611C11.8235 29.8142 11.7751 29.873 11.7335 29.9365C11.692 29.9989 11.6561 30.0658 11.6273 30.135C11.5985 30.2055 11.5754 30.2781 11.5616 30.3519C11.5466 30.4258 11.5385 30.5019 11.5385 30.5769C11.5385 30.6519 11.5466 30.7281 11.5616 30.8019C11.5754 30.8758 11.5985 30.9484 11.6273 31.0177C11.6561 31.0881 11.6919 31.155 11.7335 31.2173C11.775 31.2808 11.8235 31.3396 11.8766 31.3927C11.9297 31.4458 11.9885 31.4942 12.052 31.5358C12.1143 31.5773 12.1813 31.6131 12.2516 31.6419C12.3208 31.6708 12.3935 31.6939 12.4673 31.7089C12.5411 31.7239 12.6173 31.7308 12.6923 31.7308C12.7673 31.7308 12.8435 31.7239 12.9173 31.7089C12.9911 31.6939 13.0638 31.6708 13.1331 31.6419C13.2035 31.6131 13.2704 31.5774 13.3326 31.5358C13.3961 31.4943 13.455 31.4458 13.5081 31.3927C13.5611 31.3396 13.6095 31.2808 13.6511 31.2173C13.6926 31.1549 13.7285 31.088 13.7573 31.0177C13.7861 30.9484 13.8092 30.8758 13.8231 30.8019C13.8381 30.7281 13.8461 30.6519 13.8461 30.5769C13.8461 30.5019 13.8381 30.4258 13.8231 30.3519Z" fill="white"/>
</svg>
