<svg width="60" height="60" viewBox="0 0 60 60" fill="none" xmlns="http://www.w3.org/2000/svg">
    <g clip-path="url(#clip0)">
        <path d="M40.0608 14.2529H12.8906C12.2435 14.2529 11.7188 13.7283 11.7188 13.0811C11.7188 12.4338 12.2435 11.9092 12.8906 11.9092H40.0608C40.7079 11.9092 41.2327 12.4338 41.2327 13.0811C41.2327 13.7283 40.7079 14.2529 40.0608 14.2529Z" fill="white"/>
        <path d="M47.1072 8.8623H35.2954C34.6483 8.8623 34.1235 8.33766 34.1235 7.69043C34.1235 7.0432 34.6483 6.51855 35.2954 6.51855H47.1072C47.7543 6.51855 48.2791 7.0432 48.2791 7.69043C48.2791 8.33766 47.7543 8.8623 47.1072 8.8623Z" fill="white"/>
        <path d="M24.7024 8.8623H12.8906C12.2435 8.8623 11.7188 8.33766 11.7188 7.69043C11.7188 7.0432 12.2435 6.51855 12.8906 6.51855H24.7024C25.3497 6.51855 25.8743 7.0432 25.8743 7.69043C25.8743 8.33766 25.3495 8.8623 24.7024 8.8623Z" fill="white"/>
        <path d="M30.0197 8.85977C29.5295 8.85977 29.0827 8.54232 28.9174 8.08215C28.7545 7.62842 28.8939 7.10696 29.2615 6.79468C29.6447 6.46926 30.2109 6.42672 30.6381 6.69238C31.0476 6.94701 31.2649 7.44316 31.1695 7.91646C31.0606 8.45702 30.5723 8.85977 30.0197 8.85977Z" fill="white"/>
        <path d="M22.1963 43.8252C23.9285 42.2221 25.0142 39.9326 25.0142 37.3948C25.0142 32.5581 21.0707 28.623 16.2235 28.623C11.3763 28.623 7.43268 32.5581 7.43268 37.3948C7.43268 39.9326 8.5183 42.2221 10.2506 43.8252C7.26932 43.9116 4.87061 46.3637 4.87061 49.3655V58.8288C4.87061 59.4761 5.39537 60.0007 6.04248 60.0007H26.4044C27.0516 60.0007 27.5763 59.4761 27.5763 58.8288V49.3655C27.5763 46.3637 25.1777 43.9117 22.1963 43.8252ZM9.77654 37.3948C9.77654 33.8503 12.6687 30.9668 16.2236 30.9668C19.7785 30.9668 22.6706 33.8503 22.6706 37.3948C22.6706 40.9392 19.7785 43.8227 16.2236 43.8227C12.6687 43.8227 9.77654 40.9392 9.77654 37.3948ZM25.2325 57.657H7.21436V49.3655C7.21436 47.6016 8.64943 46.1665 10.4133 46.1665H22.0335C23.7974 46.1665 25.2325 47.6016 25.2325 49.3655V57.657Z" fill="white"/>
        <path d="M49.7574 43.8252C51.4897 42.2221 52.5753 39.9326 52.5753 37.3948C52.5753 32.5581 48.6318 28.623 43.7845 28.623C38.9374 28.623 34.9938 32.5581 34.9938 37.3948C34.9938 39.9326 36.0794 42.2221 37.8117 43.8252C34.8304 43.9116 32.4317 46.3637 32.4317 49.3655V58.8288C32.4317 59.4761 32.9565 60.0007 33.6036 60.0007H53.9655C54.6126 60.0007 55.1374 59.4761 55.1374 58.8288V49.3655C55.1375 46.3637 52.7388 43.9117 49.7574 43.8252ZM37.3376 37.3948C37.3376 33.8503 40.2297 30.9668 43.7846 30.9668C47.3395 30.9668 50.2317 33.8503 50.2317 37.3948C50.2317 40.9392 47.3395 43.8227 43.7846 43.8227C40.2297 43.8227 37.3376 40.9392 37.3376 37.3948ZM52.7937 57.657H34.7756V49.3655C34.7756 47.6016 36.2106 46.1665 37.9746 46.1665H49.5948C51.3587 46.1665 52.7937 47.6016 52.7937 49.3655V57.657Z" fill="white"/>
        <path d="M44.1381 25.1977C43.8917 25.1977 43.6476 25.12 43.4431 24.9694L38.2944 21.178H21.7148L16.566 24.9694C16.2383 25.2109 15.8084 25.2648 15.4312 25.1119C15.0538 24.9591 14.7829 24.6213 14.7155 24.22L14.2044 21.178H5.89893C4.12846 21.178 2.68799 19.7384 2.68799 17.9689V3.20918C2.68787 1.43965 4.12834 0 5.89893 0H54.1103C55.8808 0 57.3213 1.43965 57.3213 3.20918V17.9689C57.3213 19.7385 55.8808 21.178 54.1103 21.178H45.8049L45.2937 24.22C45.2263 24.6214 44.9553 24.9592 44.5781 25.1119C44.436 25.1694 44.2867 25.1977 44.1381 25.1977ZM21.3299 18.8343H38.6794C38.9295 18.8343 39.1729 18.9143 39.3744 19.0625L43.2983 21.952L43.6579 19.812C43.7527 19.2476 44.2413 18.8343 44.8135 18.8343H54.1103C54.5886 18.8343 54.9775 18.446 54.9775 17.9689V3.20918C54.9775 2.73199 54.5886 2.34375 54.1103 2.34375H5.89893C5.42068 2.34375 5.03174 2.73199 5.03174 3.20918V17.9689C5.03174 18.4461 5.42068 18.8343 5.89893 18.8343H15.1958C15.7681 18.8343 16.2567 19.2476 16.3513 19.812L16.711 21.952L20.6349 19.0625C20.8365 18.9143 21.0799 18.8343 21.3299 18.8343Z" fill="white"/>
    </g>
    <defs>
        <clipPath id="clip0">
            <rect width="60" height="60" fill="white"/>
        </clipPath>
    </defs>
</svg>
