<svg width="22" height="22" viewBox="0 0 22 22" fill="none" xmlns="http://www.w3.org/2000/svg">
    <path d="M11 22C17.0751 22 22 17.0751 22 11C22 4.92487 17.0751 0 11 0C4.92487 0 0 4.92487 0 11C0 17.0751 4.92487 22 11 22Z" fill="#039BE5"/>
    <path d="M5.03341 10.7616L15.6392 6.67239C16.1315 6.49456 16.5614 6.79248 16.4019 7.53681L16.4028 7.53589L14.597 16.0435C14.4632 16.6466 14.1047 16.7933 13.6033 16.5091L10.8533 14.4824L9.52691 15.7602C9.38025 15.9069 9.2565 16.0306 8.97233 16.0306L9.16758 13.2321L14.2642 8.62764C14.4861 8.43239 14.2147 8.32239 13.9223 8.51673L7.62391 12.4822L4.90875 11.6352C4.31933 11.4482 4.3065 11.0458 5.03341 10.7616Z" fill="white"/>
</svg>
